<?xml version="1.0" encoding="UTF-8" standalone="no"?><svg xmlns="http://www.w3.org/2000/svg" xmlns:xlink="http://www.w3.org/1999/xlink" contentScriptType="application/ecmascript" contentStyleType="text/css" height="4466px" preserveAspectRatio="none" style="width:2282px;height:4466px;background:#FFFFFF;" version="1.1" viewBox="0 0 2282 4466" width="2282px" zoomAndPan="magnify"><defs><filter height="300%" id="f162tb086u2595" width="300%" x="-1" y="-1"><feGaussianBlur result="blurOut" stdDeviation="2.0"/><feColorMatrix in="blurOut" result="blurOut2" type="matrix" values="0 0 0 0 0 0 0 0 0 0 0 0 0 0 0 0 0 0 .4 0"/><feOffset dx="4.0" dy="4.0" in="blurOut2" result="blurOut3"/><feBlend in="SourceGraphic" in2="blurOut3" mode="normal"/></filter></defs><g><!--MD5=[dd666d95682ed53f534c4d51d7665f6e]
entity tm--><ellipse cx="64.5" cy="3827.002" fill="#FEFECE" filter="url(#f162tb086u2595)" rx="8" ry="8" style="stroke:#A80036;stroke-width:1.5;"/><path d="M64.5,3835.002 L64.5,3862.002 M51.5,3843.002 L77.5,3843.002 M64.5,3862.002 L51.5,3877.002 M64.5,3862.002 L77.5,3877.002 " fill="none" filter="url(#f162tb086u2595)" style="stroke:#A80036;stroke-width:1.5;"/><text fill="#000000" font-family="sans-serif" font-size="14" lengthAdjust="spacing" textLength="112" x="8.5" y="3895.4971">Traffic Manager</text><!--MD5=[dc7fb56487618d91d540ed1a4700aa4b]
entity pm--><ellipse cx="64.5" cy="2404" fill="#FEFECE" filter="url(#f162tb086u2595)" rx="8" ry="8" style="stroke:#A80036;stroke-width:1.5;"/><path d="M64.5,2412 L64.5,2439 M51.5,2420 L77.5,2420 M64.5,2439 L51.5,2454 M64.5,2439 L77.5,2454 " fill="none" filter="url(#f162tb086u2595)" style="stroke:#A80036;stroke-width:1.5;"/><text fill="#000000" font-family="sans-serif" font-size="14" lengthAdjust="spacing" textLength="117" x="6" y="2472.4951">Project Manager</text><!--MD5=[a36c62372afaa8616006808bd07b5dfc]
entity pman--><ellipse cx="64.5" cy="1436" fill="#FEFECE" filter="url(#f162tb086u2595)" rx="8" ry="8" style="stroke:#A80036;stroke-width:1.5;"/><path d="M64.5,1444 L64.5,1471 M51.5,1452 L77.5,1452 M64.5,1471 L51.5,1486 M64.5,1471 L77.5,1486 " fill="none" filter="url(#f162tb086u2595)" style="stroke:#A80036;stroke-width:1.5;"/><text fill="#000000" font-family="sans-serif" font-size="14" lengthAdjust="spacing" textLength="96" x="16.5" y="1504.4951">Port Manager</text><!--MD5=[8e9b2d9d80e066cced8e5d90e9bdea61]
entity c--><ellipse cx="64.5" cy="1270" fill="#FEFECE" filter="url(#f162tb086u2595)" rx="8" ry="8" style="stroke:#A80036;stroke-width:1.5;"/><path d="M64.5,1278 L64.5,1305 M51.5,1286 L77.5,1286 M64.5,1305 L51.5,1320 M64.5,1305 L77.5,1320 " fill="none" filter="url(#f162tb086u2595)" style="stroke:#A80036;stroke-width:1.5;"/><text fill="#000000" font-family="sans-serif" font-size="14" lengthAdjust="spacing" textLength="43" x="43" y="1338.4951">Client</text><!--MD5=[f6c8693f2725baec96dbc257309cbcf0]
entity sc--><ellipse cx="64.5" cy="467" fill="#FEFECE" filter="url(#f162tb086u2595)" rx="8" ry="8" style="stroke:#A80036;stroke-width:1.5;"/><path d="M64.5,475 L64.5,502 M51.5,483 L77.5,483 M64.5,502 L51.5,517 M64.5,502 L77.5,517 " fill="none" filter="url(#f162tb086u2595)" style="stroke:#A80036;stroke-width:1.5;"/><text fill="#000000" font-family="sans-serif" font-size="14" lengthAdjust="spacing" textLength="92" x="18.5" y="535.4951">Ship Captain</text><ellipse cx="1227.2195" cy="3401.1439" fill="#FEFECE" filter="url(#f162tb086u2595)" rx="181.2195" ry="38.6439" style="stroke:#A80036;stroke-width:1.5;"/><text fill="#000000" font-family="sans-serif" font-size="14" lengthAdjust="spacing" textLength="335" x="1059.7195" y="3403.9906">US101: Import ships from a text file into a BST</text><ellipse cx="1226.8383" cy="3536.7697" fill="#FEFECE" filter="url(#f162tb086u2595)" rx="296.8383" ry="61.7677" style="stroke:#A80036;stroke-width:1.5;"/><text fill="#000000" font-family="sans-serif" font-size="14" lengthAdjust="spacing" textLength="570" x="941.8383" y="3539.6163">US102: Search the details of a ship using any of its codes: MMSI, IMO or Call Sign</text><ellipse cx="1226.8335" cy="3708.8687" fill="#FEFECE" filter="url(#f162tb086u2595)" rx="359.8335" ry="74.3667" style="stroke:#A80036;stroke-width:1.5;"/><text fill="#000000" font-family="sans-serif" font-size="14" lengthAdjust="spacing" textLength="697" x="878.3335" y="3711.7154">US103: Have the positional messages temporally organized and associated with each of the ships</text><ellipse cx="1227.1801" cy="3857.938" fill="#FEFECE" filter="url(#f162tb086u2595)" rx="182.6801" ry="38.936" style="stroke:#A80036;stroke-width:1.5;"/><text fill="#000000" font-family="sans-serif" font-size="14" lengthAdjust="spacing" textLength="338" x="1058.1801" y="3860.7847">US104: Make a summary of a ship's movements</text><ellipse cx="1227.1497" cy="4012.9319" fill="#FEFECE" filter="url(#f162tb086u2595)" rx="390.1497" ry="80.4299" style="stroke:#A80036;stroke-width:1.5;"/><text fill="#000000" font-family="sans-serif" font-size="14" lengthAdjust="spacing" textLength="758" x="848.1497" y="4015.7786">US105: List for all ships the MMSI, the total number of movements, Travelled Distance and Delta Distance</text><ellipse cx="1227.0934" cy="1716.9187" fill="#FEFECE" filter="url(#f162tb086u2595)" rx="762.5934" ry="154.9187" style="stroke:#A80036;stroke-width:1.5;"/><text fill="#000000" font-family="sans-serif" font-size="14" lengthAdjust="spacing" textLength="1505" x="474.5934" y="1719.7654">US108: Develop the data model required to support all the functionality and to fulfill the purpose of the system to develop. This data model is to be designed following a systematic data modeling methodology</text><ellipse cx="1227.1983" cy="2049.1397" fill="#FEFECE" filter="url(#f162tb086u2595)" rx="696.1983" ry="141.6397" style="stroke:#A80036;stroke-width:1.5;"/><text fill="#000000" font-family="sans-serif" font-size="14" lengthAdjust="spacing" textLength="1372" x="541.1983" y="2051.9863">US109: Draft an SQL script to test whether the database verifies all the data integrity restrictions that are required to fulfil the purpose of the system and the business constraints of the UoD</text><ellipse cx="1226.8051" cy="2434.761" fill="#FEFECE" filter="url(#f162tb086u2595)" rx="1034.3051" ry="209.261" style="stroke:#A80036;stroke-width:1.5;"/><text fill="#000000" font-family="sans-serif" font-size="14" lengthAdjust="spacing" textLength="2049" x="202.3051" y="2437.6077">US110: Define the naming conventions to apply when defining identifiers or writing SQL or PL/SQL code. The naming conventions may evolve as new database and programming objects are known. The naming conventions guide should be organized in a way to facilitate its maintenance</text><ellipse cx="1226.9131" cy="2864.8826" fill="#FEFECE" filter="url(#f162tb086u2595)" rx="912.4131" ry="184.8826" style="stroke:#A80036;stroke-width:1.5;"/><text fill="#000000" font-family="sans-serif" font-size="14" lengthAdjust="spacing" textLength="1805" x="324.4131" y="2867.7293">US111: Create a SQL script to load the database with a minimum set of data sufficient to carry out data integrity verification and functional testing. This script shall produce a bootstrap report providing the number of tuples/rows in each relation/table</text><ellipse cx="1226.9279" cy="1466.9856" fill="#FEFECE" filter="url(#f162tb086u2595)" rx="287.9279" ry="59.9856" style="stroke:#A80036;stroke-width:1.5;"/><text fill="#000000" font-family="sans-serif" font-size="14" lengthAdjust="spacing" textLength="552" x="950.9279" y="1469.8323">US201: Import ports from a text file and create a 2D-tree with port locations</text><ellipse cx="1226.8824" cy="4189.8785" fill="#FEFECE" filter="url(#f162tb086u2595)" rx="292.3824" ry="60.8765" style="stroke:#A80036;stroke-width:1.5;"/><text fill="#000000" font-family="sans-serif" font-size="14" lengthAdjust="spacing" textLength="561" x="946.3824" y="4192.7252">US202: Find the closest port of a ship given its CallSign, on a certain DateTime</text><ellipse cx="1226.911" cy="3205.7822" fill="#FEFECE" filter="url(#f162tb086u2595)" rx="591.911" ry="120.7822" style="stroke:#A80036;stroke-width:1.5;"/><text fill="#000000" font-family="sans-serif" font-size="14" lengthAdjust="spacing" textLength="1163" x="645.411" y="3208.6289">US203: Review the relational data model in view of the new user stories so it can support all the requirements to fulfil the purpose of the system being developed</text><ellipse cx="1226.9757" cy="1300.7951" fill="#FEFECE" filter="url(#f162tb086u2595)" rx="339.4757" ry="70.2951" style="stroke:#A80036;stroke-width:1.5;"/><text fill="#000000" font-family="sans-serif" font-size="14" lengthAdjust="spacing" textLength="656" x="898.9757" y="1303.6418">US204: Know the current situation of a specific container being used to transport my goods</text><ellipse cx="1227.0242" cy="91.2048" fill="#FEFECE" filter="url(#f162tb086u2595)" rx="414.0242" ry="85.2048" style="stroke:#A80036;stroke-width:1.5;"/><text fill="#000000" font-family="sans-serif" font-size="14" lengthAdjust="spacing" textLength="806" x="824.0242" y="94.0515">US205: List of containers to be offloaded in the next port, including container identifier, type, position, and load</text><ellipse cx="1226.7668" cy="287.9534" fill="#FEFECE" filter="url(#f162tb086u2595)" rx="370.2668" ry="76.4534" style="stroke:#A80036;stroke-width:1.5;"/><text fill="#000000" font-family="sans-serif" font-size="14" lengthAdjust="spacing" textLength="718" x="867.7668" y="290.8">US206: List of containers to be loaded in the next port, including container identifier, type, and load</text><ellipse cx="1227.2423" cy="497.9485" fill="#FEFECE" filter="url(#f162tb086u2595)" rx="480.2423" ry="98.4485" style="stroke:#A80036;stroke-width:1.5;"/><text fill="#000000" font-family="sans-serif" font-size="14" lengthAdjust="spacing" textLength="939" x="757.7423" y="500.7951">US207: Know how many cargo manifests I have transported during a given year and the average number of containers per manifest</text><ellipse cx="1226.7977" cy="843.1595" fill="#FEFECE" filter="url(#f162tb086u2595)" rx="1043.7977" ry="211.1595" style="stroke:#A80036;stroke-width:1.5;"/><text fill="#000000" font-family="sans-serif" font-size="14" lengthAdjust="spacing" textLength="2068" x="192.7977" y="846.0062">US208: Know the occupancy rate (percentage) of a given ship for a given cargo manifest. Occupancy rate is the ratio between total number of containers in the ship coming from a given manifest and the total capacity of the ship, i.e., the maximum number of containers the ship can load</text><ellipse cx="1226.831" cy="1142.1662" fill="#FEFECE" filter="url(#f162tb086u2595)" rx="253.831" ry="53.1662" style="stroke:#A80036;stroke-width:1.5;"/><text fill="#000000" font-family="sans-serif" font-size="14" lengthAdjust="spacing" textLength="483" x="985.331" y="1145.0129">US209: Know the occupancy rate of a given ship at a given moment</text><ellipse cx="1226.763" cy="4349.8542" fill="#FEFECE" filter="url(#f162tb086u2595)" rx="304.763" ry="63.3526" style="stroke:#A80036;stroke-width:1.5;"/><text fill="#000000" font-family="sans-serif" font-size="14" lengthAdjust="spacing" textLength="586" x="933.763" y="4352.7009">US210: Know which ships will be available on Monday next week and their location</text><!--MD5=[555b063e003db0b842c86fa21249dd73]
link tm to US101--><path d="M71.4362,3817.489 C85.8643,3725.095 125.835,3503.276 183,3458.002 C313.115,3354.95 790.434,3370.13 1051.89,3387.15 " fill="none" id="tm-to-US101" style="stroke:#A80036;stroke-width:1.0;"/><polygon fill="#A80036" points="1057.26,3387.5,1048.5417,3382.9185,1052.2708,3387.1721,1048.0171,3390.9012,1057.26,3387.5" style="stroke:#A80036;stroke-width:1.0;"/><!--MD5=[8f749fa2607ebe9d25118b47838dc806]
link tm to US102--><path d="M72.491,3817.485 C84.4326,3761.893 114.469,3663.57 183,3617.002 C425.582,3452.16 777.178,3463.46 1003.707,3494.267 " fill="none" id="tm-to-US102" style="stroke:#A80036;stroke-width:1.0;"/><polygon fill="#A80036" points="1008.7,3494.952,1000.3275,3489.7653,1003.7464,3494.2721,999.2397,3497.691,1008.7,3494.952" style="stroke:#A80036;stroke-width:1.0;"/><!--MD5=[434f65544a67c49e6be0e76aa106033c]
link tm to US103--><path d="M120.706,3826.717 C139.866,3817.221 161.856,3807.781 183,3802.002 C403.425,3741.746 658.844,3718.241 861.751,3709.924 " fill="none" id="tm-to-US103" style="stroke:#A80036;stroke-width:1.0;"/><polygon fill="#A80036" points="866.835,3709.719,857.6812,3706.0848,861.8391,3709.9204,858.0035,3714.0783,866.835,3709.719" style="stroke:#A80036;stroke-width:1.0;"/><!--MD5=[55a68f8985be3d93926b3c0765435808]
link tm to US104--><path d="M120.693,3858.002 C283.782,3858.002 768.938,3858.002 1039.11,3858.002 " fill="none" id="tm-to-US104" style="stroke:#A80036;stroke-width:1.0;"/><polygon fill="#A80036" points="1044.26,3858.002,1035.26,3854.002,1039.26,3858.002,1035.26,3862.002,1044.26,3858.002" style="stroke:#A80036;stroke-width:1.0;"/><!--MD5=[10a17e582b79ff174e5ade0296a6dd49]
link tm to US105--><path d="M120.664,3889.798 C139.821,3899.461 161.82,3909.079 183,3915.002 C392.64,3973.625 634.24,3998.853 832.09,4009.099 " fill="none" id="tm-to-US105" style="stroke:#A80036;stroke-width:1.0;"/><polygon fill="#A80036" points="837.343,4009.368,828.5594,4004.9129,832.3495,4009.1123,828.1502,4012.9024,837.343,4009.368" style="stroke:#A80036;stroke-width:1.0;"/><!--MD5=[313d0d3d1de98b4a21ec49940d4d7adf]
link tm to US202--><path d="M71.4715,3898.532 C82.3616,3956.449 111.34,4061.363 183,4111.002 C426.673,4279.792 783.654,4265.45 1010.38,4232.892 " fill="none" id="tm-to-US202" style="stroke:#A80036;stroke-width:1.0;"/><polygon fill="#A80036" points="1015.37,4232.168,1005.8909,4229.4948,1010.4213,4232.8823,1007.0338,4237.4127,1015.37,4232.168" style="stroke:#A80036;stroke-width:1.0;"/><!--MD5=[d7ccc32b701f64df1cc4ca28163221ce]
link tm to US210--><path d="M71.23,3898.819 C85.3522,3993.101 124.95,4221.584 183,4269.002 C416.357,4459.615 785.288,4437.1917 1016.07,4397.7969 " fill="none" id="tm-to-US210" style="stroke:#A80036;stroke-width:1.0;"/><polygon fill="#A80036" points="1021.16,4396.9223,1011.6076,4394.5239,1016.234,4397.7792,1012.9786,4402.4055,1021.16,4396.9223" style="stroke:#A80036;stroke-width:1.0;"/><!--MD5=[ca15944755d8fbd297e3e4385d1f90ee]
link pm to US108--><path d="M68.4904,2394.1 C77.7231,2279.64 109.695,1959.87 183,1890 C261.474,1815.21 359.255,1765.71 463.257,1733.83 " fill="none" id="pm-to-US108" style="stroke:#A80036;stroke-width:1.0;"/><polygon fill="#A80036" points="468.215,1732.33,458.4411,1731.1169,463.4306,1733.7825,460.7651,1738.7719,468.215,1732.33" style="stroke:#A80036;stroke-width:1.0;"/><!--MD5=[b00aed01a08878a4df30247a37cf4ee3]
link pm to US109--><path d="M74.5116,2394.35 C88.3405,2342.21 120.076,2253.13 183,2208 C284.204,2135.41 405.227,2090.17 528.402,2062.86 " fill="none" id="pm-to-US109" style="stroke:#A80036;stroke-width:1.0;"/><polygon fill="#A80036" points="533.525,2061.73,523.8765,2059.7534,528.6414,2062.8024,525.5924,2067.5672,533.525,2061.73" style="stroke:#A80036;stroke-width:1.0;"/><!--MD5=[869353957dffa2396bc97e9a3e5126e6]
link pm to US110--><path d="M123.049,2435 C140.876,2435 162.38,2435 186.899,2435 " fill="none" id="pm-to-US110" style="stroke:#A80036;stroke-width:1.0;"/><polygon fill="#A80036" points="192.177,2435,183.177,2431,187.177,2435,183.177,2439,192.177,2435" style="stroke:#A80036;stroke-width:1.0;"/><!--MD5=[795420e9fa76f0f0af3c448d09721cbc]
link pm to US111--><path d="M74.9185,2475.71 C89.1213,2527.49 121.191,2615.72 183,2662 C249.873,2712.07 325.724,2750.78 405.285,2780.58 " fill="none" id="pm-to-US111" style="stroke:#A80036;stroke-width:1.0;"/><polygon fill="#A80036" points="410.044,2782.35,403.0049,2775.4615,405.3581,2780.6057,400.214,2782.9589,410.044,2782.35" style="stroke:#A80036;stroke-width:1.0;"/><!--MD5=[39a527eae88046243f6e04ff51f722ce]
link pm to US203--><path d="M67.0244,2475.64 C72.6554,2602.26 96.6678,2986.04 183,3068 C314.651,3192.98 501.273,3241.72 680.345,3254.58 " fill="none" id="pm-to-US203" style="stroke:#A80036;stroke-width:1.0;"/><polygon fill="#A80036" points="685.373,3254.93,676.6752,3250.3096,680.3853,3254.5799,676.115,3258.2899,685.373,3254.93" style="stroke:#A80036;stroke-width:1.0;"/><!--MD5=[422650a75b1c33c8453ac552eafdd0a8]
link pman to US201--><path d="M112.793,1467 C249.234,1467 651.777,1467 933.363,1467 " fill="none" id="pman-to-US201" style="stroke:#A80036;stroke-width:1.0;"/><polygon fill="#A80036" points="938.745,1467,929.745,1463,933.745,1467,929.745,1471,938.745,1467" style="stroke:#A80036;stroke-width:1.0;"/><!--MD5=[5fb40daeef0820737e85587a48a86dd5]
link c to US204--><path d="M86.1352,1301 C180.874,1301 582.345,1301 882.195,1301 " fill="none" id="c-to-US204" style="stroke:#A80036;stroke-width:1.0;"/><polygon fill="#A80036" points="887.486,1301,878.486,1297,882.486,1301,878.486,1305,887.486,1301" style="stroke:#A80036;stroke-width:1.0;"/><!--MD5=[a4531b04fdad02d3c5a04ae46bf5a3b5]
link sc to US205--><path d="M68.1787,457.34 C74.9675,390.38 98.8919,257.97 183,194 C382.293,42.43 668.687,24.05 890.965,39.46 " fill="none" id="sc-to-US205" style="stroke:#A80036;stroke-width:1.0;"/><polygon fill="#A80036" points="896.203,39.83,887.5078,35.2046,891.2155,39.477,886.9431,43.1846,896.203,39.83" style="stroke:#A80036;stroke-width:1.0;"/><!--MD5=[ef6ce5df81a07983f85e89e8ae546ec7]
link sc to US206--><path d="M94.5073,457.4 C115.776,431.06 147.116,398.65 183,382 C397.766,282.35 663.92,259.76 873.61,261.61 " fill="none" id="sc-to-US206" style="stroke:#A80036;stroke-width:1.0;"/><polygon fill="#A80036" points="878.864,261.67,869.9033,257.5828,873.8642,261.6214,869.8256,265.5824,878.864,261.67" style="stroke:#A80036;stroke-width:1.0;"/><!--MD5=[d91fe69b5debe4401b08e5b8e20247c5]
link sc to US207--><path d="M110.637,498 C216.605,498 491.287,498 741.527,498 " fill="none" id="sc-to-US207" style="stroke:#A80036;stroke-width:1.0;"/><polygon fill="#A80036" points="746.69,498,737.69,494,741.69,498,737.69,502,746.69,498" style="stroke:#A80036;stroke-width:1.0;"/><!--MD5=[18ac148a09447a9c544b2d1bcf975842]
link sc to US208--><path d="M96.4052,538.59 C117.949,564.05 148.868,595.46 183,614 C252.543,651.77 327.895,683.31 405.184,709.65 " fill="none" id="sc-to-US208" style="stroke:#A80036;stroke-width:1.0;"/><polygon fill="#A80036" points="410.278,711.38,403.0421,704.6985,405.5435,709.7723,400.4698,712.2737,410.278,711.38" style="stroke:#A80036;stroke-width:1.0;"/><!--MD5=[331b3ff99a588e9a50f625bbcead34c3]
link sc to US209--><path d="M67.6635,538.78 C74.8836,657.77 102.4281,1000.58 183,1071 C297.488,1171.06 708.913,1170.56 979.534,1158.26 " fill="none" id="sc-to-US209" style="stroke:#A80036;stroke-width:1.0;"/><polygon fill="#A80036" points="984.703,1158.03,975.5293,1154.4464,979.7082,1158.259,975.8956,1162.438,984.703,1158.03" style="stroke:#A80036;stroke-width:1.0;"/><!--MD5=[378420cb317f7a2c410bca4008c2db98]
@startuml
left to right direction
actor "Traffic Manager" as tm
actor "Project Manager" as pm
actor "Port Manager" as pman
actor "Client" as c
actor "Ship Captain" as sc

  usecase "US101: Import ships from a text file into a BST" as US101
  usecase "US102: Search the details of a ship using any of its codes: MMSI, IMO or Call Sign" as US102
  usecase "US103: Have the positional messages temporally organized and associated with each of the ships" as US103
  usecase "US104: Make a summary of a ship's movements" as US104
  usecase "US105: List for all ships the MMSI, the total number of movements, Travelled Distance and Delta Distance" as US105
  usecase "US108: Develop the data model required to support all the functionality and to fulfill the purpose of the system to develop. This data model is to be designed following a systematic data modeling methodology" as US108
  usecase "US109: Draft an SQL script to test whether the database verifies all the data integrity restrictions that are required to fulfil the purpose of the system and the business constraints of the UoD" as US109
  usecase "US110: Define the naming conventions to apply when defining identifiers or writing SQL or PL/SQL code. The naming conventions may evolve as new database and programming objects are known. The naming conventions guide should be organized in a way to facilitate its maintenance" as US110
  usecase "US111: Create a SQL script to load the database with a minimum set of data sufficient to carry out data integrity verification and functional testing. This script shall produce a bootstrap report providing the number of tuples/rows in each relation/table" as US111
  usecase "US201: Import ports from a text file and create a 2D-tree with port locations" as US201
  usecase "US202: Find the closest port of a ship given its CallSign, on a certain DateTime" as US202
  usecase "US203: Review the relational data model in view of the new user stories so it can support all the requirements to fulfil the purpose of the system being developed" as US203
  usecase "US204: Know the current situation of a specific container being used to transport my goods" as US204
  usecase "US205: List of containers to be offloaded in the next port, including container identifier, type, position, and load" as US205
  usecase "US206: List of containers to be loaded in the next port, including container identifier, type, and load" as US206
  usecase "US207: Know how many cargo manifests I have transported during a given year and the average number of containers per manifest" as US207
  usecase "US208: Know the occupancy rate (percentage) of a given ship for a given cargo manifest. Occupancy rate is the ratio between total number of containers in the ship coming from a given manifest and the total capacity of the ship, i.e., the maximum number of containers the ship can load" as US208
  usecase "US209: Know the occupancy rate of a given ship at a given moment" as US209
  usecase "US210: Know which ships will be available on Monday next week and their location" as US210

tm - -> US101
tm - -> US102
tm - -> US103
tm - -> US104
tm - -> US105
tm - -> US202
tm - -> US210

pm - -> US108
pm - -> US109
pm - -> US110
pm - -> US111
pm - -> US203

pman - -> US201

c - -> US204

sc - -> US205
sc - -> US206
sc - -> US207
sc - -> US208
sc - -> US209
@enduml

PlantUML version 1.2021.14(Fri Nov 12 16:46:50 UTC 2021)
(GPL source distribution)
Java Runtime: Java(TM) SE Runtime Environment
JVM: Java HotSpot(TM) 64-Bit Server VM
Default Encoding: UTF-8
Language: en
Country: US
--></g></svg>