<?xml version="1.0" encoding="UTF-8" standalone="no"?><svg xmlns="http://www.w3.org/2000/svg" xmlns:xlink="http://www.w3.org/1999/xlink" contentScriptType="application/ecmascript" contentStyleType="text/css" height="8752px" preserveAspectRatio="none" style="width:2378px;height:8752px;background:#FFFFFF;" version="1.1" viewBox="0 0 2378 8752" width="2378px" zoomAndPan="magnify"><defs><filter height="300%" id="fn08xf0t1evzn" width="300%" x="-1" y="-1"><feGaussianBlur result="blurOut" stdDeviation="2.0"/><feColorMatrix in="blurOut" result="blurOut2" type="matrix" values="0 0 0 0 0 0 0 0 0 0 0 0 0 0 0 0 0 0 .4 0"/><feOffset dx="4.0" dy="4.0" in="blurOut2" result="blurOut3"/><feBlend in="SourceGraphic" in2="blurOut3" mode="normal"/></filter></defs><g><!--MD5=[dd666d95682ed53f534c4d51d7665f6e]
entity tm--><ellipse cx="112.5" cy="7628" fill="#FEFECE" filter="url(#fn08xf0t1evzn)" rx="8" ry="8" style="stroke:#A80036;stroke-width:1.5;"/><path d="M112.5,7636 L112.5,7663 M99.5,7644 L125.5,7644 M112.5,7663 L99.5,7678 M112.5,7663 L125.5,7678 " fill="none" filter="url(#fn08xf0t1evzn)" style="stroke:#A80036;stroke-width:1.5;"/><text fill="#000000" font-family="sans-serif" font-size="14" lengthAdjust="spacing" textLength="112" x="56.5" y="7696.4951">Traffic Manager</text><!--MD5=[dc7fb56487618d91d540ed1a4700aa4b]
entity pm--><ellipse cx="112.5" cy="5793" fill="#FEFECE" filter="url(#fn08xf0t1evzn)" rx="8" ry="8" style="stroke:#A80036;stroke-width:1.5;"/><path d="M112.5,5801 L112.5,5828 M99.5,5809 L125.5,5809 M112.5,5828 L99.5,5843 M112.5,5828 L125.5,5843 " fill="none" filter="url(#fn08xf0t1evzn)" style="stroke:#A80036;stroke-width:1.5;"/><text fill="#000000" font-family="sans-serif" font-size="14" lengthAdjust="spacing" textLength="117" x="54" y="5861.4951">Project Manager</text><!--MD5=[a36c62372afaa8616006808bd07b5dfc]
entity pman--><ellipse cx="112.5" cy="4459" fill="#FEFECE" filter="url(#fn08xf0t1evzn)" rx="8" ry="8" style="stroke:#A80036;stroke-width:1.5;"/><path d="M112.5,4467 L112.5,4494 M99.5,4475 L125.5,4475 M112.5,4494 L99.5,4509 M112.5,4494 L125.5,4509 " fill="none" filter="url(#fn08xf0t1evzn)" style="stroke:#A80036;stroke-width:1.5;"/><text fill="#000000" font-family="sans-serif" font-size="14" lengthAdjust="spacing" textLength="96" x="64.5" y="4527.4951">Port Manager</text><!--MD5=[8e9b2d9d80e066cced8e5d90e9bdea61]
entity c--><ellipse cx="112.5" cy="3805" fill="#FEFECE" filter="url(#fn08xf0t1evzn)" rx="8" ry="8" style="stroke:#A80036;stroke-width:1.5;"/><path d="M112.5,3813 L112.5,3840 M99.5,3821 L125.5,3821 M112.5,3840 L99.5,3855 M112.5,3840 L125.5,3855 " fill="none" filter="url(#fn08xf0t1evzn)" style="stroke:#A80036;stroke-width:1.5;"/><text fill="#000000" font-family="sans-serif" font-size="14" lengthAdjust="spacing" textLength="43" x="91" y="3873.4951">Client</text><!--MD5=[f6c8693f2725baec96dbc257309cbcf0]
entity sc--><ellipse cx="112.5" cy="2540" fill="#FEFECE" filter="url(#fn08xf0t1evzn)" rx="8" ry="8" style="stroke:#A80036;stroke-width:1.5;"/><path d="M112.5,2548 L112.5,2575 M99.5,2556 L125.5,2556 M112.5,2575 L99.5,2590 M112.5,2575 L125.5,2590 " fill="none" filter="url(#fn08xf0t1evzn)" style="stroke:#A80036;stroke-width:1.5;"/><text fill="#000000" font-family="sans-serif" font-size="14" lengthAdjust="spacing" textLength="92" x="66.5" y="2608.4951">Ship Captain</text><!--MD5=[6857688d619609624168cacb5f029075]
entity ps--><ellipse cx="112.5" cy="1351" fill="#FEFECE" filter="url(#fn08xf0t1evzn)" rx="8" ry="8" style="stroke:#A80036;stroke-width:1.5;"/><path d="M112.5,1359 L112.5,1386 M99.5,1367 L125.5,1367 M112.5,1386 L99.5,1401 M112.5,1386 L125.5,1401 " fill="none" filter="url(#fn08xf0t1evzn)" style="stroke:#A80036;stroke-width:1.5;"/><text fill="#000000" font-family="sans-serif" font-size="14" lengthAdjust="spacing" textLength="71" x="77" y="1419.4951">Port Staff</text><!--MD5=[0aaaf558181cc80f1bc0278fc9c0b43f]
entity scee--><ellipse cx="112.5" cy="365" fill="#FEFECE" filter="url(#fn08xf0t1evzn)" rx="8" ry="8" style="stroke:#A80036;stroke-width:1.5;"/><path d="M112.5,373 L112.5,400 M99.5,381 L125.5,381 M112.5,400 L99.5,415 M112.5,400 L125.5,415 " fill="none" filter="url(#fn08xf0t1evzn)" style="stroke:#A80036;stroke-width:1.5;"/><text fill="#000000" font-family="sans-serif" font-size="14" lengthAdjust="spacing" textLength="213" x="6" y="433.4951">Ship Chief Electrical Engineer</text><ellipse cx="1323.2195" cy="6790.1439" fill="#FEFECE" filter="url(#fn08xf0t1evzn)" rx="181.2195" ry="38.6439" style="stroke:#A80036;stroke-width:1.5;"/><text fill="#000000" font-family="sans-serif" font-size="14" lengthAdjust="spacing" textLength="335" x="1155.7195" y="6792.9906">US101: Import ships from a text file into a BST</text><ellipse cx="1322.8383" cy="6925.7677" fill="#FEFECE" filter="url(#fn08xf0t1evzn)" rx="296.8383" ry="61.7677" style="stroke:#A80036;stroke-width:1.5;"/><text fill="#000000" font-family="sans-serif" font-size="14" lengthAdjust="spacing" textLength="570" x="1037.8383" y="6928.6143">US102: Search the details of a ship using any of its codes: MMSI, IMO or Call Sign</text><ellipse cx="1322.8335" cy="7097.8667" fill="#FEFECE" filter="url(#fn08xf0t1evzn)" rx="359.8335" ry="74.3667" style="stroke:#A80036;stroke-width:1.5;"/><text fill="#000000" font-family="sans-serif" font-size="14" lengthAdjust="spacing" textLength="697" x="974.3335" y="7100.7134">US103: Have the positional messages temporally organized and associated with each of the ships</text><ellipse cx="1323.1801" cy="7246.936" fill="#FEFECE" filter="url(#fn08xf0t1evzn)" rx="182.6801" ry="38.936" style="stroke:#A80036;stroke-width:1.5;"/><text fill="#000000" font-family="sans-serif" font-size="14" lengthAdjust="spacing" textLength="338" x="1154.1801" y="7249.7827">US104: Make a summary of a ship's movements</text><ellipse cx="1323.1497" cy="7401.9299" fill="#FEFECE" filter="url(#fn08xf0t1evzn)" rx="390.1497" ry="80.4299" style="stroke:#A80036;stroke-width:1.5;"/><text fill="#000000" font-family="sans-serif" font-size="14" lengthAdjust="spacing" textLength="758" x="944.1497" y="7404.7766">US105: List for all ships the MMSI, the total number of movements, Travelled Distance and Delta Distance</text><ellipse cx="1323.0934" cy="5105.9187" fill="#FEFECE" filter="url(#fn08xf0t1evzn)" rx="762.5934" ry="154.9187" style="stroke:#A80036;stroke-width:1.5;"/><text fill="#000000" font-family="sans-serif" font-size="14" lengthAdjust="spacing" textLength="1505" x="570.5934" y="5108.7654">US108: Develop the data model required to support all the functionality and to fulfill the purpose of the system to develop. This data model is to be designed following a systematic data modeling methodology</text><ellipse cx="1323.1983" cy="5438.1397" fill="#FEFECE" filter="url(#fn08xf0t1evzn)" rx="696.1983" ry="141.6397" style="stroke:#A80036;stroke-width:1.5;"/><text fill="#000000" font-family="sans-serif" font-size="14" lengthAdjust="spacing" textLength="1372" x="637.1983" y="5440.9863">US109: Draft an SQL script to test whether the database verifies all the data integrity restrictions that are required to fulfil the purpose of the system and the business constraints of the UoD</text><ellipse cx="1322.8051" cy="5823.761" fill="#FEFECE" filter="url(#fn08xf0t1evzn)" rx="1034.3051" ry="209.261" style="stroke:#A80036;stroke-width:1.5;"/><text fill="#000000" font-family="sans-serif" font-size="14" lengthAdjust="spacing" textLength="2049" x="298.3051" y="5826.6077">US110: Define the naming conventions to apply when defining identifiers or writing SQL or PL/SQL code. The naming conventions may evolve as new database and programming objects are known. The naming conventions guide should be organized in a way to facilitate its maintenance</text><ellipse cx="1322.9131" cy="6253.8826" fill="#FEFECE" filter="url(#fn08xf0t1evzn)" rx="912.4131" ry="184.8826" style="stroke:#A80036;stroke-width:1.5;"/><text fill="#000000" font-family="sans-serif" font-size="14" lengthAdjust="spacing" textLength="1805" x="420.4131" y="6256.7293">US111: Create a SQL script to load the database with a minimum set of data sufficient to carry out data integrity verification and functional testing. This script shall produce a bootstrap report providing the number of tuples/rows in each relation/table</text><ellipse cx="1322.9279" cy="4166.9856" fill="#FEFECE" filter="url(#fn08xf0t1evzn)" rx="287.9279" ry="59.9856" style="stroke:#A80036;stroke-width:1.5;"/><text fill="#000000" font-family="sans-serif" font-size="14" lengthAdjust="spacing" textLength="552" x="1046.9279" y="4169.8323">US201: Import ports from a text file and create a 2D-tree with port locations</text><ellipse cx="1322.8824" cy="7578.8765" fill="#FEFECE" filter="url(#fn08xf0t1evzn)" rx="292.3824" ry="60.8765" style="stroke:#A80036;stroke-width:1.5;"/><text fill="#000000" font-family="sans-serif" font-size="14" lengthAdjust="spacing" textLength="561" x="1042.3824" y="7581.7232">US202: Find the closest port of a ship given its CallSign, on a certain DateTime</text><ellipse cx="1322.911" cy="6594.7822" fill="#FEFECE" filter="url(#fn08xf0t1evzn)" rx="591.911" ry="120.7822" style="stroke:#A80036;stroke-width:1.5;"/><text fill="#000000" font-family="sans-serif" font-size="14" lengthAdjust="spacing" textLength="1163" x="741.411" y="6597.6289">US203: Review the relational data model in view of the new user stories so it can support all the requirements to fulfil the purpose of the system being developed</text><ellipse cx="1322.9757" cy="3682.7951" fill="#FEFECE" filter="url(#fn08xf0t1evzn)" rx="339.4757" ry="70.2951" style="stroke:#A80036;stroke-width:1.5;"/><text fill="#000000" font-family="sans-serif" font-size="14" lengthAdjust="spacing" textLength="656" x="994.9757" y="3685.6418">US204: Know the current situation of a specific container being used to transport my goods</text><ellipse cx="1323.0242" cy="1819.2048" fill="#FEFECE" filter="url(#fn08xf0t1evzn)" rx="414.0242" ry="85.2048" style="stroke:#A80036;stroke-width:1.5;"/><text fill="#000000" font-family="sans-serif" font-size="14" lengthAdjust="spacing" textLength="806" x="920.0242" y="1822.0515">US205: List of containers to be offloaded in the next port, including container identifier, type, position, and load</text><ellipse cx="1322.7668" cy="2015.9534" fill="#FEFECE" filter="url(#fn08xf0t1evzn)" rx="370.2668" ry="76.4534" style="stroke:#A80036;stroke-width:1.5;"/><text fill="#000000" font-family="sans-serif" font-size="14" lengthAdjust="spacing" textLength="718" x="963.7668" y="2018.8">US206: List of containers to be loaded in the next port, including container identifier, type, and load</text><ellipse cx="1323.2423" cy="2225.9485" fill="#FEFECE" filter="url(#fn08xf0t1evzn)" rx="480.2423" ry="98.4485" style="stroke:#A80036;stroke-width:1.5;"/><text fill="#000000" font-family="sans-serif" font-size="14" lengthAdjust="spacing" textLength="939" x="853.7423" y="2228.7951">US207: Know how many cargo manifests I have transported during a given year and the average number of containers per manifest</text><ellipse cx="1322.7977" cy="2571.1595" fill="#FEFECE" filter="url(#fn08xf0t1evzn)" rx="1043.7977" ry="211.1595" style="stroke:#A80036;stroke-width:1.5;"/><text fill="#000000" font-family="sans-serif" font-size="14" lengthAdjust="spacing" textLength="2068" x="288.7977" y="2574.0062">US208: Know the occupancy rate (percentage) of a given ship for a given cargo manifest. Occupancy rate is the ratio between total number of containers in the ship coming from a given manifest and the total capacity of the ship, i.e., the maximum number of containers the ship can load</text><ellipse cx="1322.831" cy="2870.1662" fill="#FEFECE" filter="url(#fn08xf0t1evzn)" rx="253.831" ry="53.1662" style="stroke:#A80036;stroke-width:1.5;"/><text fill="#000000" font-family="sans-serif" font-size="14" lengthAdjust="spacing" textLength="483" x="1081.331" y="2873.0129">US209: Know the occupancy rate of a given ship at a given moment</text><ellipse cx="1322.763" cy="7738.8526" fill="#FEFECE" filter="url(#fn08xf0t1evzn)" rx="304.763" ry="63.3526" style="stroke:#A80036;stroke-width:1.5;"/><text fill="#000000" font-family="sans-serif" font-size="14" lengthAdjust="spacing" textLength="586" x="1029.763" y="7741.6993">US210: Know which ships will be available on Monday next week and their location</text><ellipse cx="1322.8871" cy="7910.7774" fill="#FEFECE" filter="url(#fn08xf0t1evzn)" rx="351.8871" ry="72.7774" style="stroke:#A80036;stroke-width:1.5;"/><text fill="#000000" font-family="sans-serif" font-size="14" lengthAdjust="spacing" textLength="681" x="982.3871" y="7913.6241">US301: Import data from countries, ports, borders and seadists files to build a freight network.</text><ellipse cx="1323.019" cy="8064.2038" fill="#FEFECE" filter="url(#fn08xf0t1evzn)" rx="211.519" ry="44.7038" style="stroke:#A80036;stroke-width:1.5;"/><text fill="#000000" font-family="sans-serif" font-size="14" lengthAdjust="spacing" textLength="397" x="1124.519" y="8067.0505">US302: Colour the map using as few colours as possible.</text><ellipse cx="1322.9721" cy="8213.8944" fill="#FEFECE" filter="url(#fn08xf0t1evzn)" rx="339.9721" ry="70.3944" style="stroke:#A80036;stroke-width:1.5;"/><text fill="#000000" font-family="sans-serif" font-size="14" lengthAdjust="spacing" textLength="657" x="994.4721" y="8216.7411">US303: Know which places (cities or ports) are closest to all other places (closeness places).</text><ellipse cx="1323.087" cy="3113.8174" fill="#FEFECE" filter="url(#fn08xf0t1evzn)" rx="767.087" ry="155.8174" style="stroke:#A80036;stroke-width:1.5;"/><text fill="#000000" font-family="sans-serif" font-size="14" lengthAdjust="spacing" textLength="1514" x="566.087" y="3116.6641">US304: Have access to audit trails for a given container of a given cargo manifest, that is, I want to have access to a list of all operations performed on a given container of a given manifest, in chronological order.</text><ellipse cx="1322.7916" cy="3836.1583" fill="#FEFECE" filter="url(#fn08xf0t1evzn)" rx="223.7916" ry="47.1583" style="stroke:#A80036;stroke-width:1.5;"/><text fill="#000000" font-family="sans-serif" font-size="14" lengthAdjust="spacing" textLength="422" x="1111.7916" y="3839.005">US305: Know the route of a specific container I am leasing.</text><ellipse cx="1323.1995" cy="4362.8399" fill="#FEFECE" filter="url(#fn08xf0t1evzn)" rx="492.1995" ry="100.8399" style="stroke:#A80036;stroke-width:1.5;"/><text fill="#000000" font-family="sans-serif" font-size="14" lengthAdjust="spacing" textLength="963" x="841.6995" y="4365.6866">US306: Know the occupancy rate of each warehouse and an estimate of the containers leaving the warehouse during the next 30 days.</text><ellipse cx="1322.958" cy="4615.9916" fill="#FEFECE" filter="url(#fn08xf0t1evzn)" rx="572.958" ry="116.9916" style="stroke:#A80036;stroke-width:1.5;"/><text fill="#000000" font-family="sans-serif" font-size="14" lengthAdjust="spacing" textLength="1125" x="760.458" y="4618.8383">US307: Get a warning whenever I issue a cargo manifest destined for a warehouse whose available capacity is insufficient to accommodate the new manifest.</text><ellipse cx="1322.8086" cy="8414.9617" fill="#FEFECE" filter="url(#fn08xf0t1evzn)" rx="462.8086" ry="94.9617" style="stroke:#A80036;stroke-width:1.5;"/><text fill="#000000" font-family="sans-serif" font-size="14" lengthAdjust="spacing" textLength="904" x="870.8086" y="8417.8084">US308: Have a system that ensures that the number of containers in a manifest does not exceed the ship's available capacity.</text><ellipse cx="1322.7551" cy="8642.751" fill="#FEFECE" filter="url(#fn08xf0t1evzn)" rx="476.7551" ry="97.751" style="stroke:#A80036;stroke-width:1.5;"/><text fill="#000000" font-family="sans-serif" font-size="14" lengthAdjust="spacing" textLength="932" x="856.7551" y="8645.5977">US309: not allow a cargo manifest for a particular ship to be registered in the system on a date when the ship is already occupied.</text><ellipse cx="1322.8434" cy="4842.0687" fill="#FEFECE" filter="url(#fn08xf0t1evzn)" rx="358.3434" ry="74.0687" style="stroke:#A80036;stroke-width:1.5;"/><text fill="#000000" font-family="sans-serif" font-size="14" lengthAdjust="spacing" textLength="694" x="975.8434" y="4844.9154">US310: Have a map of the occupation of the existing resources in the port during a given month.</text><ellipse cx="1322.7516" cy="3440.7503" fill="#FEFECE" filter="url(#fn08xf0t1evzn)" rx="666.7516" ry="135.7503" style="stroke:#A80036;stroke-width:1.5;"/><text fill="#000000" font-family="sans-serif" font-size="14" lengthAdjust="spacing" textLength="1313" x="666.2516" y="3443.597">US311: Provide a database access account, with login “crew” and password “bd7wd5aF”, which gives access exclusively to the information of the containers that are loaded on my ship.</text><ellipse cx="1322.7638" cy="3995.0528" fill="#FEFECE" filter="url(#fn08xf0t1evzn)" rx="370.7638" ry="76.5528" style="stroke:#A80036;stroke-width:1.5;"/><text fill="#000000" font-family="sans-serif" font-size="14" lengthAdjust="spacing" textLength="719" x="963.2638" y="3997.8994">US312: Know the current situation of a specific container being used to transport my goods - US204.</text><ellipse cx="1322.7551" cy="1103.751" fill="#FEFECE" filter="url(#fn08xf0t1evzn)" rx="476.7551" ry="97.751" style="stroke:#A80036;stroke-width:1.5;"/><text fill="#000000" font-family="sans-serif" font-size="14" lengthAdjust="spacing" textLength="932" x="856.7551" y="1106.5977">US313: Given a Cargo Manifest, I wish to fill a statically reserved matrix in memory with each container's ID in its respective place.</text><ellipse cx="1322.8874" cy="1297.7775" fill="#FEFECE" filter="url(#fn08xf0t1evzn)" rx="291.8874" ry="60.7775" style="stroke:#A80036;stroke-width:1.5;"/><text fill="#000000" font-family="sans-serif" font-size="14" lengthAdjust="spacing" textLength="560" x="1042.8874" y="1300.6242">US314: Know the total number of free/occupied slots in the transport vehicle.</text><ellipse cx="1322.9467" cy="1465.0893" fill="#FEFECE" filter="url(#fn08xf0t1evzn)" rx="343.4467" ry="71.0893" style="stroke:#A80036;stroke-width:1.5;"/><text fill="#000000" font-family="sans-serif" font-size="14" lengthAdjust="spacing" textLength="664" x="990.9467" y="1467.936">US315: Given a position in the transport vehicle, I wish to know if a container is there or not.</text><ellipse cx="1323.2403" cy="1634.8481" fill="#FEFECE" filter="url(#fn08xf0t1evzn)" rx="307.2403" ry="63.8481" style="stroke:#A80036;stroke-width:1.5;"/><text fill="#000000" font-family="sans-serif" font-size="14" lengthAdjust="spacing" textLength="591" x="1027.7403" y="1637.6947">US316: Given a set of positions, I wish to know the total number of occupied slots.</text><ellipse cx="1322.9539" cy="76.8908" fill="#FEFECE" filter="url(#fn08xf0t1evzn)" rx="342.4539" ry="70.8908" style="stroke:#A80036;stroke-width:1.5;"/><text fill="#000000" font-family="sans-serif" font-size="14" lengthAdjust="spacing" textLength="662" x="991.9539" y="79.7375">US317: Know what set of materials to use in a container, to operate at temperatures of 7°C.</text><ellipse cx="1322.9218" cy="254.7844" fill="#FEFECE" filter="url(#fn08xf0t1evzn)" rx="346.9218" ry="71.7844" style="stroke:#A80036;stroke-width:1.5;"/><text fill="#000000" font-family="sans-serif" font-size="14" lengthAdjust="spacing" textLength="671" x="987.4218" y="257.631">US318: Know what set of materials to use in a container, to operate at temperatures of -5 °C.</text><ellipse cx="1322.969" cy="536.8938" fill="#FEFECE" filter="url(#fn08xf0t1evzn)" rx="859.969" ry="174.3938" style="stroke:#A80036;stroke-width:1.5;"/><text fill="#000000" font-family="sans-serif" font-size="14" lengthAdjust="spacing" textLength="1700" x="472.969" y="539.7405">US319: Know the thermal resistance, for each operating temperature, of each container that must contain at least three different materials in its walls. One for the outer wall, one for the intermediate material, and one for the inner wall.</text><ellipse cx="1323.0221" cy="859.2044" fill="#FEFECE" filter="url(#fn08xf0t1evzn)" rx="549.0221" ry="112.2044" style="stroke:#A80036;stroke-width:1.5;"/><text fill="#000000" font-family="sans-serif" font-size="14" lengthAdjust="spacing" textLength="1077" x="784.5221" y="862.0511">US320: Present in a summary document, the choice of materials considered for the two types of containers considered, and their thermal resistances.</text><!--MD5=[555b063e003db0b842c86fa21249dd73]
link tm to US101--><path d="M115.454,7618.45 C123.579,7468.62 160.024,6949.71 279,6847 C405.212,6738.04 888.263,6756.21 1150.39,6775.08 " fill="none" id="tm-to-US101" style="stroke:#A80036;stroke-width:1.0;"/><polygon fill="#A80036" points="1155.38,6775.45,1146.6888,6770.8172,1150.3928,6775.0927,1146.1172,6778.7967,1155.38,6775.45" style="stroke:#A80036;stroke-width:1.0;"/><!--MD5=[8f749fa2607ebe9d25118b47838dc806]
link tm to US102--><path d="M117.721,7618.09 C132.053,7487.81 183.365,7086.48 279,7006 C512.972,6809.1 890.387,6836.61 1121.33,6878.51 " fill="none" id="tm-to-US102" style="stroke:#A80036;stroke-width:1.0;"/><polygon fill="#A80036" points="1126.41,6879.44,1118.275,6873.8883,1121.4913,6878.5418,1116.8379,6881.7582,1126.41,6879.44" style="stroke:#A80036;stroke-width:1.0;"/><!--MD5=[434f65544a67c49e6be0e76aa106033c]
link tm to US103--><path d="M114.184,7618.18 C118.169,7525.14 142.145,7297.19 279,7191 C496.515,7022.22 821.693,7020.58 1051.03,7047.41 " fill="none" id="tm-to-US103" style="stroke:#A80036;stroke-width:1.0;"/><polygon fill="#A80036" points="1056.09,7048,1047.6215,7042.9716,1051.1245,7047.4133,1046.6828,7050.9163,1056.09,7048" style="stroke:#A80036;stroke-width:1.0;"/><!--MD5=[55a68f8985be3d93926b3c0765435808]
link tm to US104--><path d="M118.883,7618.44 C131.424,7541.96 170.282,7377.52 279,7304 C415.33,7211.81 882.625,7221.69 1143.06,7235.25 " fill="none" id="tm-to-US104" style="stroke:#A80036;stroke-width:1.0;"/><polygon fill="#A80036" points="1148.4,7235.53,1139.6173,7231.073,1143.4066,7235.2732,1139.2064,7239.0625,1148.4,7235.53" style="stroke:#A80036;stroke-width:1.0;"/><!--MD5=[10a17e582b79ff174e5ade0296a6dd49]
link tm to US105--><path d="M142.874,7618.37 C172.561,7580.81 222.089,7526.99 279,7501 C485.635,7406.63 738.894,7380.77 944.104,7379.04 " fill="none" id="tm-to-US105" style="stroke:#A80036;stroke-width:1.0;"/><polygon fill="#A80036" points="949.247,7379,940.2175,7375.067,944.2471,7379.0371,940.277,7383.0667,949.247,7379" style="stroke:#A80036;stroke-width:1.0;"/><!--MD5=[313d0d3d1de98b4a21ec49940d4d7adf]
link tm to US202--><path d="M168.567,7655.35 C319.651,7645.35 748.686,7616.95 1038.72,7597.75 " fill="none" id="tm-to-US202" style="stroke:#A80036;stroke-width:1.0;"/><polygon fill="#A80036" points="1043.83,7597.41,1034.5864,7594.0105,1038.8408,7597.7388,1035.1125,7601.9932,1043.83,7597.41" style="stroke:#A80036;stroke-width:1.0;"/><!--MD5=[d7ccc32b701f64df1cc4ca28163221ce]
link tm to US210--><path d="M168.567,7662.65 C317.643,7672.51 737.329,7700.3 1027.08,7719.48 " fill="none" id="tm-to-US210" style="stroke:#A80036;stroke-width:1.0;"/><polygon fill="#A80036" points="1032.19,7719.82,1023.4856,7715.212,1027.2018,7719.477,1022.9368,7723.1931,1032.19,7719.82" style="stroke:#A80036;stroke-width:1.0;"/><!--MD5=[ee7473c16b28e44d348f6b3f7fc691ff]
link tm to US301--><path d="M142.094,7699.76 C171.554,7738.14 221.23,7793.553 279,7820 C501.19,7921.719 777.662,7941.697 990.125,7937.736 " fill="none" id="tm-to-US301" style="stroke:#A80036;stroke-width:1.0;"/><polygon fill="#A80036" points="995.131,7937.638,986.0539,7933.8162,990.132,7937.7366,986.2116,7941.8147,995.131,7937.638" style="stroke:#A80036;stroke-width:1.0;"/><!--MD5=[ffc3eae766c4940987b37e80ebf457ce]
link tm to US302--><path d="M119.638,7699.64 C133.28,7774.142 173.674,7931.431 279,8002 C410.726,8090.256 848.938,8086.887 1113.61,8075.875 " fill="none" id="tm-to-US302" style="stroke:#A80036;stroke-width:1.0;"/><polygon fill="#A80036" points="1118.66,8075.663,1109.4969,8072.0524,1113.6646,8075.8773,1109.8397,8080.045,1118.66,8075.663" style="stroke:#A80036;stroke-width:1.0;"/><!--MD5=[b6221e90a33af5dfacbf6430e7bfe797]
link tm to US303--><path d="M114.18,7699.78 C118.158,7792.724 142.118,8020.379 279,8126 C503.577,8299.288 842.072,8293.967 1072.06,8263.425 " fill="none" id="tm-to-US303" style="stroke:#A80036;stroke-width:1.0;"/><polygon fill="#A80036" points="1077.13,8262.745,1067.6823,8259.9628,1072.1734,8263.4023,1068.7339,8267.8934,1077.13,8262.745" style="stroke:#A80036;stroke-width:1.0;"/><!--MD5=[bcb4b64cd3a0d380bd34bb3280f9dc42]
link tm to US308--><path d="M117.976,7699.62 C132.996,7828.037 185.956,8221.474 279,8302 C459.2,8457.955 727.664,8484.009 947.092,8472.208 " fill="none" id="tm-to-US308" style="stroke:#A80036;stroke-width:1.0;"/><polygon fill="#A80036" points="952.266,8471.923,943.0591,8468.4253,947.2736,8472.1987,943.5002,8476.4132,952.266,8471.923" style="stroke:#A80036;stroke-width:1.0;"/><!--MD5=[2bcde6f41e07f7762028de55bd1e6b9e]
link tm to US309--><path d="M115.074,7699.71 C121.999,7855.872 155.166,8413.511 279,8528 C453.526,8689.356 721.076,8716.1105 941.495,8703.5526 " fill="none" id="tm-to-US309" style="stroke:#A80036;stroke-width:1.0;"/><polygon fill="#A80036" points="946.693,8703.2487,937.4752,8699.7801,941.7015,8703.5401,937.9414,8707.7665,946.693,8703.2487" style="stroke:#A80036;stroke-width:1.0;"/><!--MD5=[ca15944755d8fbd297e3e4385d1f90ee]
link pm to US108--><path d="M120.191,5783.35 C139.877,5668.81 201.139,5347.31 279,5279 C360.066,5207.87 458.861,5160.28 562.978,5129.17 " fill="none" id="pm-to-US108" style="stroke:#A80036;stroke-width:1.0;"/><polygon fill="#A80036" points="567.94,5127.7,558.174,5126.4254,563.1466,5129.1223,560.4496,5134.0949,567.94,5127.7" style="stroke:#A80036;stroke-width:1.0;"/><!--MD5=[b00aed01a08878a4df30247a37cf4ee3]
link pm to US109--><path d="M131.027,5783.07 C155.794,5730.61 206.269,5641.2 279,5597 C385.531,5532.26 509.133,5490.71 633.201,5464.59 " fill="none" id="pm-to-US109" style="stroke:#A80036;stroke-width:1.0;"/><polygon fill="#A80036" points="638.361,5463.51,628.7323,5461.4391,633.4671,5464.5346,630.3716,5469.2693,638.361,5463.51" style="stroke:#A80036;stroke-width:1.0;"/><!--MD5=[869353957dffa2396bc97e9a3e5126e6]
link pm to US110--><path d="M171.381,5824 C200.023,5824 238.131,5824 283.049,5824 " fill="none" id="pm-to-US110" style="stroke:#A80036;stroke-width:1.0;"/><polygon fill="#A80036" points="288.272,5824,279.272,5820,283.272,5824,279.272,5828,288.272,5824" style="stroke:#A80036;stroke-width:1.0;"/><!--MD5=[795420e9fa76f0f0af3c448d09721cbc]
link pm to US111--><path d="M131.523,5864.93 C156.671,5916.95 207.395,6005.45 279,6051 C352.71,6097.88 434.838,6134.37 519.749,6162.7 " fill="none" id="pm-to-US111" style="stroke:#A80036;stroke-width:1.0;"/><polygon fill="#A80036" points="524.568,6164.3,517.2846,6157.6704,519.8222,6162.7262,514.7664,6165.2637,524.568,6164.3" style="stroke:#A80036;stroke-width:1.0;"/><!--MD5=[39a527eae88046243f6e04ff51f722ce]
link pm to US203--><path d="M118.264,5864.8 C133.964,5991.89 188.316,6376.93 279,6457 C410.348,6572.97 589.712,6621.41 762.664,6636.63 " fill="none" id="pm-to-US203" style="stroke:#A80036;stroke-width:1.0;"/><polygon fill="#A80036" points="767.779,6637.08,759.156,6632.3214,762.7975,6636.6504,758.4686,6640.2919,767.779,6637.08" style="stroke:#A80036;stroke-width:1.0;"/><!--MD5=[422650a75b1c33c8453ac552eafdd0a8]
link pman to US201--><path d="M127.841,4449.35 C150.276,4392.52 199.524,4291.11 279,4245 C527.661,4100.75 867.658,4105.08 1090.92,4129.39 " fill="none" id="pman-to-US201" style="stroke:#A80036;stroke-width:1.0;"/><polygon fill="#A80036" points="1096.18,4129.97,1087.6815,4124.9925,1091.2111,4129.4131,1086.7905,4132.9428,1096.18,4129.97" style="stroke:#A80036;stroke-width:1.0;"/><!--MD5=[717a6e3c5346929d56cc10277cad72fb]
link pman to US306--><path d="M160.504,4485.06 C279.664,4472.54 603.684,4438.49 879.305,4409.52 " fill="none" id="pman-to-US306" style="stroke:#A80036;stroke-width:1.0;"/><polygon fill="#A80036" points="884.581,4408.97,875.2128,4405.9306,879.6083,4409.4916,876.0474,4413.887,884.581,4408.97" style="stroke:#A80036;stroke-width:1.0;"/><!--MD5=[7a125535691f1d4a7f16858af29a24ad]
link pman to US307--><path d="M160.504,4494.9 C269.396,4506.25 549.368,4535.44 807.144,4562.32 " fill="none" id="pman-to-US307" style="stroke:#A80036;stroke-width:1.0;"/><polygon fill="#A80036" points="812.463,4562.87,803.9266,4557.9579,807.49,4562.3513,803.0966,4565.9147,812.463,4562.87" style="stroke:#A80036;stroke-width:1.0;"/><!--MD5=[00066dd85f3a84e55558f22baeef7d29]
link pman to US310--><path d="M126.251,4530.59 C147.381,4590.36 195.794,4700.4 279,4751 C500.505,4885.7 798.941,4898.55 1019.83,4883.52 " fill="none" id="pman-to-US310" style="stroke:#A80036;stroke-width:1.0;"/><polygon fill="#A80036" points="1025.03,4883.16,1015.7768,4879.7869,1020.0418,4883.503,1016.3256,4887.768,1025.03,4883.16" style="stroke:#A80036;stroke-width:1.0;"/><!--MD5=[5fb40daeef0820737e85587a48a86dd5]
link c to US204--><path d="M134.057,3825.85 C164.768,3811.2 224.822,3784.52 279,3772 C508.816,3718.9 773.693,3696.77 979.009,3687.85 " fill="none" id="c-to-US204" style="stroke:#A80036;stroke-width:1.0;"/><polygon fill="#A80036" points="984.152,3687.63,974.989,3684.019,979.1566,3687.8441,975.3315,3692.0117,984.152,3687.63" style="stroke:#A80036;stroke-width:1.0;"/><!--MD5=[78b0602199e753183dee090e6b8676eb]
link c to US305--><path d="M134.222,3836 C245.751,3836 781.166,3836 1093.76,3836 " fill="none" id="c-to-US305" style="stroke:#A80036;stroke-width:1.0;"/><polygon fill="#A80036" points="1098.81,3836,1089.81,3832,1093.81,3836,1089.81,3840,1098.81,3836" style="stroke:#A80036;stroke-width:1.0;"/><!--MD5=[f0bb5ad7cfc3ee4e93f3529182aefc13]
link c to US312--><path d="M134.045,3846.28 C164.74,3861.13 224.775,3888.19 279,3901 C497.567,3952.65 748.053,3976.34 948.763,3987.03 " fill="none" id="c-to-US312" style="stroke:#A80036;stroke-width:1.0;"/><polygon fill="#A80036" points="953.793,3987.3,945.0167,3982.8305,948.8,3987.0361,944.5944,3990.8194,953.793,3987.3" style="stroke:#A80036;stroke-width:1.0;"/><!--MD5=[a4531b04fdad02d3c5a04ae46bf5a3b5]
link sc to US205--><path d="M117.833,2530.42 C132.506,2401.19 184.737,2002.98 279,1922 C476.288,1752.5 778.448,1740.18 1006.85,1762.35 " fill="none" id="sc-to-US205" style="stroke:#A80036;stroke-width:1.0;"/><polygon fill="#A80036" points="1011.89,1762.85,1003.3216,1757.9938,1006.9137,1762.3638,1002.5437,1765.9559,1011.89,1762.85" style="stroke:#A80036;stroke-width:1.0;"/><!--MD5=[ef6ce5df81a07983f85e89e8ae546ec7]
link sc to US206--><path d="M114.425,2530.44 C118.927,2438.55 143.932,2214.4 279,2110 C493.464,1944.24 811.874,1939.67 1040.42,1964.76 " fill="none" id="sc-to-US206" style="stroke:#A80036;stroke-width:1.0;"/><polygon fill="#A80036" points="1045.47,1965.32,1036.9715,1960.3425,1040.5011,1964.7631,1036.0805,1968.2928,1045.47,1965.32" style="stroke:#A80036;stroke-width:1.0;"/><!--MD5=[d91fe69b5debe4401b08e5b8e20247c5]
link sc to US207--><path d="M130.297,2530.36 C154.567,2477.32 204.819,2386.2 279,2343 C451.27,2242.69 666.789,2206.74 857.128,2198.47 " fill="none" id="sc-to-US207" style="stroke:#A80036;stroke-width:1.0;"/><polygon fill="#A80036" points="862.185,2198.26,853.024,2194.6438,857.1895,2198.4712,853.362,2202.6367,862.185,2198.26" style="stroke:#A80036;stroke-width:1.0;"/><!--MD5=[18ac148a09447a9c544b2d1bcf975842]
link sc to US208--><path d="M158.669,2571 C186.473,2571 225.913,2571 273.593,2571 " fill="none" id="sc-to-US208" style="stroke:#A80036;stroke-width:1.0;"/><polygon fill="#A80036" points="278.838,2571,269.838,2567,273.838,2571,269.838,2575,278.838,2571" style="stroke:#A80036;stroke-width:1.0;"/><!--MD5=[331b3ff99a588e9a50f625bbcead34c3]
link sc to US209--><path d="M129.762,2611.85 C153.579,2665.61 203.486,2758.16 279,2800 C541.831,2945.64 900.972,2932.17 1121.9,2904.49 " fill="none" id="sc-to-US209" style="stroke:#A80036;stroke-width:1.0;"/><polygon fill="#A80036" points="1127.09,2903.83,1117.6583,2900.9939,1122.1297,2904.459,1118.6647,2908.9304,1127.09,2903.83" style="stroke:#A80036;stroke-width:1.0;"/><!--MD5=[6a5fd6a98ea59971e794db453955586a]
link sc to US304--><path d="M119.002,2611.52 C131.811,2688.99 171.204,2857.81 279,2941 C363.482,3006.2 463.387,3050.71 567.352,3080.56 " fill="none" id="sc-to-US304" style="stroke:#A80036;stroke-width:1.0;"/><polygon fill="#A80036" points="572.305,3081.97,564.7484,3075.6535,567.497,3080.5977,562.5528,3083.3463,572.305,3081.97" style="stroke:#A80036;stroke-width:1.0;"/><!--MD5=[49be48c2bd2ed10ff1ea55542d26048c]
link sc to US311--><path d="M116.973,2611.67 C129.589,2749.36 177.677,3194.59 279,3288 C383.14,3384.01 519.641,3435.95 659.419,3461.7 " fill="none" id="sc-to-US311" style="stroke:#A80036;stroke-width:1.0;"/><polygon fill="#A80036" points="664.392,3462.6,656.2507,3457.0575,659.4723,3461.7073,654.8225,3464.9289,664.392,3462.6" style="stroke:#A80036;stroke-width:1.0;"/><!--MD5=[357a58c6f0478ef70293964acbf5ba26]
link ps to US313--><path d="M142.175,1341.28 C171.696,1302.9 221.417,1247.3 279,1220 C452.7,1137.64 660.395,1103.47 844.554,1091.75 " fill="none" id="ps-to-US313" style="stroke:#A80036;stroke-width:1.0;"/><polygon fill="#A80036" points="849.721,1091.43,840.4888,1087.9999,844.7308,1091.7422,840.9884,1095.9842,849.721,1091.43" style="stroke:#A80036;stroke-width:1.0;"/><!--MD5=[89699d7cbcadf575c93ee2c8f71e6a5a]
link ps to US314--><path d="M148.042,1379.6 C276.641,1370.66 735.88,1338.74 1040.41,1317.57 " fill="none" id="ps-to-US314" style="stroke:#A80036;stroke-width:1.0;"/><polygon fill="#A80036" points="1045.77,1317.2,1036.5168,1313.8269,1040.7818,1317.543,1037.0656,1321.808,1045.77,1317.2" style="stroke:#A80036;stroke-width:1.0;"/><!--MD5=[07059efe91ea56a12db4cb08e6ef8dd1]
link ps to US315--><path d="M148.042,1384.37 C269.933,1392.74 688.871,1421.52 991.559,1442.31 " fill="none" id="ps-to-US315" style="stroke:#A80036;stroke-width:1.0;"/><polygon fill="#A80036" points="996.899,1442.67,988.1937,1438.0637,991.9107,1442.3279,987.6464,1446.0449,996.899,1442.67" style="stroke:#A80036;stroke-width:1.0;"/><!--MD5=[8190f9e0ff6aed66ce97127876054e08]
link ps to US316--><path d="M139.235,1422.57 C167.834,1463.7 218.105,1525.25 279,1554 C520.378,1667.95 828.364,1677.76 1046.93,1665.45 " fill="none" id="ps-to-US316" style="stroke:#A80036;stroke-width:1.0;"/><polygon fill="#A80036" points="1052.07,1665.15,1042.8565,1661.67,1047.0781,1665.4352,1043.3129,1669.6569,1052.07,1665.15" style="stroke:#A80036;stroke-width:1.0;"/><!--MD5=[fb067bf1c67c8ed97fdbf97875a61d65]
link scee to US317--><path d="M129.565,355.45 C153.307,301.52 203.289,208.01 279,165 C506.607,35.69 808.317,24.05 1028.66,38.59 " fill="none" id="scee-to-US317" style="stroke:#A80036;stroke-width:1.0;"/><polygon fill="#A80036" points="1033.85,38.93,1025.1317,34.3485,1028.8608,38.6021,1024.6071,42.3312,1033.85,38.93" style="stroke:#A80036;stroke-width:1.0;"/><!--MD5=[2ffd04233f46741dfe1ff4e5bc1804c4]
link scee to US318--><path d="M219.039,359.82 C238.779,354.1 259.375,348.83 279,345 C508.543,300.26 770.835,277.76 974.964,266.44 " fill="none" id="scee-to-US318" style="stroke:#A80036;stroke-width:1.0;"/><polygon fill="#A80036" points="980.078,266.16,970.8709,262.6631,975.0856,266.4361,971.3126,270.6508,980.078,266.16" style="stroke:#A80036;stroke-width:1.0;"/><!--MD5=[2c6333a519314e45ba482e63a56da8a7]
link scee to US319--><path d="M219.159,408.33 C304.331,418.26 432.501,433.22 571.668,449.46 " fill="none" id="scee-to-US319" style="stroke:#A80036;stroke-width:1.0;"/><polygon fill="#A80036" points="577.042,450.08,568.5664,445.0636,572.0757,449.5004,567.639,453.0097,577.042,450.08" style="stroke:#A80036;stroke-width:1.0;"/><!--MD5=[047bf670e2bdbc83df6152c84ef5cd2e]
link scee to US320--><path d="M120.816,436.56 C136.129,508.59 178.807,657.96 279,729 C425.849,833.12 614.406,876.3 790.719,890.05 " fill="none" id="scee-to-US320" style="stroke:#A80036;stroke-width:1.0;"/><polygon fill="#A80036" points="795.932,890.44,787.2633,885.7651,790.9466,890.0586,786.6531,893.7418,795.932,890.44" style="stroke:#A80036;stroke-width:1.0;"/><!--MD5=[7310bec94652c6a03f2a2071856fade4]
@startuml
left to right direction
actor "Traffic Manager" as tm
actor "Project Manager" as pm
actor "Port Manager" as pman
actor "Client" as c
actor "Ship Captain" as sc
actor "Port Staff" as ps
actor "Ship Chief Electrical Engineer" as scee

  usecase "US101: Import ships from a text file into a BST" as US101
  usecase "US102: Search the details of a ship using any of its codes: MMSI, IMO or Call Sign" as US102
  usecase "US103: Have the positional messages temporally organized and associated with each of the ships" as US103
  usecase "US104: Make a summary of a ship's movements" as US104
  usecase "US105: List for all ships the MMSI, the total number of movements, Travelled Distance and Delta Distance" as US105
  usecase "US108: Develop the data model required to support all the functionality and to fulfill the purpose of the system to develop. This data model is to be designed following a systematic data modeling methodology" as US108
  usecase "US109: Draft an SQL script to test whether the database verifies all the data integrity restrictions that are required to fulfil the purpose of the system and the business constraints of the UoD" as US109
  usecase "US110: Define the naming conventions to apply when defining identifiers or writing SQL or PL/SQL code. The naming conventions may evolve as new database and programming objects are known. The naming conventions guide should be organized in a way to facilitate its maintenance" as US110
  usecase "US111: Create a SQL script to load the database with a minimum set of data sufficient to carry out data integrity verification and functional testing. This script shall produce a bootstrap report providing the number of tuples/rows in each relation/table" as US111
  usecase "US201: Import ports from a text file and create a 2D-tree with port locations" as US201
  usecase "US202: Find the closest port of a ship given its CallSign, on a certain DateTime" as US202
  usecase "US203: Review the relational data model in view of the new user stories so it can support all the requirements to fulfil the purpose of the system being developed" as US203
  usecase "US204: Know the current situation of a specific container being used to transport my goods" as US204
  usecase "US205: List of containers to be offloaded in the next port, including container identifier, type, position, and load" as US205
  usecase "US206: List of containers to be loaded in the next port, including container identifier, type, and load" as US206
  usecase "US207: Know how many cargo manifests I have transported during a given year and the average number of containers per manifest" as US207
  usecase "US208: Know the occupancy rate (percentage) of a given ship for a given cargo manifest. Occupancy rate is the ratio between total number of containers in the ship coming from a given manifest and the total capacity of the ship, i.e., the maximum number of containers the ship can load" as US208
  usecase "US209: Know the occupancy rate of a given ship at a given moment" as US209
  usecase "US210: Know which ships will be available on Monday next week and their location" as US210
  usecase "US301: Import data from countries, ports, borders and seadists files to build a freight network." as US301
  usecase "US302: Colour the map using as few colours as possible." as US302
  usecase "US303: Know which places (cities or ports) are closest to all other places (closeness places)." as US303
  usecase "US304: Have access to audit trails for a given container of a given cargo manifest, that is, I want to have access to a list of all operations performed on a given container of a given manifest, in chronological order." as US304
  usecase "US305: Know the route of a specific container I am leasing." as US305
  usecase "US306: Know the occupancy rate of each warehouse and an estimate of the containers leaving the warehouse during the next 30 days." as US306
  usecase "US307: Get a warning whenever I issue a cargo manifest destined for a warehouse whose available capacity is insufficient to accommodate the new manifest." as US307
  usecase "US308: Have a system that ensures that the number of containers in a manifest does not exceed the ship's available capacity." as US308
  usecase "US309: not allow a cargo manifest for a particular ship to be registered in the system on a date when the ship is already occupied." as US309
  usecase "US310: Have a map of the occupation of the existing resources in the port during a given month." as US310
  usecase "US311: Provide a database access account, with login “crew” and password “bd7wd5aF”, which gives access exclusively to the information of the containers that are loaded on my ship." as US311
  usecase "US312: Know the current situation of a specific container being used to transport my goods - US204." as US312
  usecase "US313: Given a Cargo Manifest, I wish to fill a statically reserved matrix in memory with each container's ID in its respective place." as US313
  usecase "US314: Know the total number of free/occupied slots in the transport vehicle." as US314
  usecase "US315: Given a position in the transport vehicle, I wish to know if a container is there or not." as US315
  usecase "US316: Given a set of positions, I wish to know the total number of occupied slots." as US316
  usecase "US317: Know what set of materials to use in a container, to operate at temperatures of 7°C." as US317
  usecase "US318: Know what set of materials to use in a container, to operate at temperatures of -5 °C." as US318
  usecase "US319: Know the thermal resistance, for each operating temperature, of each container that must contain at least three different materials in its walls. One for the outer wall, one for the intermediate material, and one for the inner wall." as US319
  usecase "US320: Present in a summary document, the choice of materials considered for the two types of containers considered, and their thermal resistances." as US320
  

tm - -> US101
tm - -> US102
tm - -> US103
tm - -> US104
tm - -> US105
tm - -> US202
tm - -> US210
tm - -> US301
tm - -> US302
tm - -> US303
tm - -> US308
tm - -> US309

pm - -> US108
pm - -> US109
pm - -> US110
pm - -> US111
pm - -> US203

pman - -> US201
pman - -> US306
pman - -> US307
pman - -> US310

c - -> US204
c - -> US305
c - -> US312

sc - -> US205
sc - -> US206
sc - -> US207
sc - -> US208
sc - -> US209
sc - -> US304
sc - -> US311

ps - -> US313
ps - -> US314
ps - -> US315
ps - -> US316

scee - -> US317
scee - -> US318
scee - -> US319
scee - -> US320
@enduml

PlantUML version 1.2021.16beta3(Unknown compile time)
(GPL source distribution)
Java Runtime: Java(TM) SE Runtime Environment
JVM: Java HotSpot(TM) 64-Bit Server VM
Default Encoding: UTF-8
Language: en
Country: US
--></g></svg>