<?xml version="1.0" encoding="UTF-8" standalone="no"?><svg xmlns="http://www.w3.org/2000/svg" xmlns:xlink="http://www.w3.org/1999/xlink" contentScriptType="application/ecmascript" contentStyleType="text/css" height="445px" preserveAspectRatio="none" style="width:561px;height:445px;background:#FFFFFF;" version="1.1" viewBox="0 0 561 445" width="561px" zoomAndPan="magnify"><defs><filter height="300%" id="f2trnfne6owr1" width="300%" x="-1" y="-1"><feGaussianBlur result="blurOut" stdDeviation="2.0"/><feColorMatrix in="blurOut" result="blurOut2" type="matrix" values="0 0 0 0 0 0 0 0 0 0 0 0 0 0 0 0 0 0 .4 0"/><feOffset dx="4.0" dy="4.0" in="blurOut2" result="blurOut3"/><feBlend in="SourceGraphic" in2="blurOut3" mode="normal"/></filter></defs><g><text fill="#000000" font-family="sans-serif" font-size="18" lengthAdjust="spacing" textLength="277" x="135.75" y="16.708">Relationships - Class Diagram</text><!--MD5=[0dc7f2ddb409b58bcf52b12238c25399]
class Ship--><rect codeLine="3" fill="#FEFECE" filter="url(#f2trnfne6owr1)" height="188.8516" id="Ship" style="stroke:#A80036;stroke-width:1.5;" width="152" x="171.5" y="27.9531"/><ellipse cx="230.25" cy="43.9531" fill="#ADD1B2" rx="11" ry="11" style="stroke:#A80036;stroke-width:1.0;"/><path d="M232.5938,39.625 C231.6563,39.1875 231.0625,39.0469 230.1875,39.0469 C227.5625,39.0469 225.5625,41.125 225.5625,43.8438 L225.5625,44.9688 C225.5625,47.5469 227.6719,49.4375 230.5625,49.4375 C231.7813,49.4375 232.9375,49.1406 233.6875,48.5938 C234.2656,48.1875 234.5938,47.7344 234.5938,47.3438 C234.5938,46.8906 234.2031,46.5 233.7344,46.5 C233.5156,46.5 233.3125,46.5781 233.125,46.7656 C232.6719,47.25 232.6719,47.25 232.4844,47.3438 C232.0625,47.6094 231.375,47.7344 230.6094,47.7344 C228.5625,47.7344 227.2656,46.6406 227.2656,44.9375 L227.2656,43.8438 C227.2656,42.0625 228.5156,40.75 230.25,40.75 C230.8281,40.75 231.4375,40.9063 231.9063,41.1563 C232.3906,41.4375 232.5625,41.6563 232.6563,42.0625 C232.7188,42.4688 232.75,42.5938 232.8906,42.7188 C233.0313,42.8594 233.2656,42.9688 233.4844,42.9688 C233.75,42.9688 234.0156,42.8281 234.1875,42.6094 C234.2969,42.4531 234.3281,42.2656 234.3281,41.8438 L234.3281,40.4219 C234.3281,39.9844 234.3125,39.8594 234.2188,39.7031 C234.0625,39.4375 233.7813,39.2969 233.4844,39.2969 C233.1875,39.2969 232.9844,39.3906 232.7656,39.7031 L232.5938,39.625 Z " fill="#000000"/><text fill="#000000" font-family="sans-serif" font-size="12" lengthAdjust="spacing" textLength="26" x="250.75" y="48.1074">Ship</text><line style="stroke:#A80036;stroke-width:1.5;" x1="172.5" x2="322.5" y1="59.9531" y2="59.9531"/><text fill="#000000" font-family="sans-serif" font-size="11" lengthAdjust="spacing" textLength="50" x="177.5" y="74.1636">int MMSI;</text><text fill="#000000" font-family="sans-serif" font-size="11" lengthAdjust="spacing" textLength="71" x="177.5" y="86.9683">string name;</text><text fill="#000000" font-family="sans-serif" font-size="11" lengthAdjust="spacing" textLength="60" x="177.5" y="99.7729">int id_ship;</text><text fill="#000000" font-family="sans-serif" font-size="11" lengthAdjust="spacing" textLength="140" x="177.5" y="112.5776">int number_energy_gen;</text><text fill="#000000" font-family="sans-serif" font-size="11" lengthAdjust="spacing" textLength="140" x="177.5" y="125.3823">fload gen_power_output;</text><text fill="#000000" font-family="sans-serif" font-size="11" lengthAdjust="spacing" textLength="63" x="177.5" y="138.187">int callsign;</text><text fill="#000000" font-family="sans-serif" font-size="11" lengthAdjust="spacing" textLength="76" x="177.5" y="150.9917">int ship_type;</text><text fill="#000000" font-family="sans-serif" font-size="11" lengthAdjust="spacing" textLength="68" x="177.5" y="163.7964">float length;</text><text fill="#000000" font-family="sans-serif" font-size="11" lengthAdjust="spacing" textLength="62" x="177.5" y="176.6011">float width;</text><text fill="#000000" font-family="sans-serif" font-size="11" lengthAdjust="spacing" textLength="79" x="177.5" y="189.4058">float capacity;</text><text fill="#000000" font-family="sans-serif" font-size="11" lengthAdjust="spacing" textLength="58" x="177.5" y="202.2104">float draft;</text><line style="stroke:#A80036;stroke-width:1.5;" x1="172.5" x2="322.5" y1="208.8047" y2="208.8047"/><!--MD5=[0b518a767dd1028241969b5a153606c0]
class ShipCallSign--><rect codeLine="17" fill="#FEFECE" filter="url(#f2trnfne6owr1)" height="48" id="ShipCallSign" style="stroke:#A80036;stroke-width:1.5;" width="105" x="7" y="338.9531"/><ellipse cx="22" cy="354.9531" fill="#ADD1B2" rx="11" ry="11" style="stroke:#A80036;stroke-width:1.0;"/><path d="M24.3438,350.625 C23.4063,350.1875 22.8125,350.0469 21.9375,350.0469 C19.3125,350.0469 17.3125,352.125 17.3125,354.8438 L17.3125,355.9688 C17.3125,358.5469 19.4219,360.4375 22.3125,360.4375 C23.5313,360.4375 24.6875,360.1406 25.4375,359.5938 C26.0156,359.1875 26.3438,358.7344 26.3438,358.3438 C26.3438,357.8906 25.9531,357.5 25.4844,357.5 C25.2656,357.5 25.0625,357.5781 24.875,357.7656 C24.4219,358.25 24.4219,358.25 24.2344,358.3438 C23.8125,358.6094 23.125,358.7344 22.3594,358.7344 C20.3125,358.7344 19.0156,357.6406 19.0156,355.9375 L19.0156,354.8438 C19.0156,353.0625 20.2656,351.75 22,351.75 C22.5781,351.75 23.1875,351.9063 23.6563,352.1563 C24.1406,352.4375 24.3125,352.6563 24.4063,353.0625 C24.4688,353.4688 24.5,353.5938 24.6406,353.7188 C24.7813,353.8594 25.0156,353.9688 25.2344,353.9688 C25.5,353.9688 25.7656,353.8281 25.9375,353.6094 C26.0469,353.4531 26.0781,353.2656 26.0781,352.8438 L26.0781,351.4219 C26.0781,350.9844 26.0625,350.8594 25.9688,350.7031 C25.8125,350.4375 25.5313,350.2969 25.2344,350.2969 C24.9375,350.2969 24.7344,350.3906 24.5156,350.7031 L24.3438,350.625 Z " fill="#000000"/><text fill="#000000" font-family="sans-serif" font-size="12" lengthAdjust="spacing" textLength="73" x="36" y="359.1074">ShipCallSign</text><line style="stroke:#A80036;stroke-width:1.5;" x1="8" x2="111" y1="370.9531" y2="370.9531"/><line style="stroke:#A80036;stroke-width:1.5;" x1="8" x2="111" y1="378.9531" y2="378.9531"/><!--MD5=[1fc0a243ea956c06e91a39f313ddcfa8]
class ShipIMO--><rect codeLine="21" fill="#FEFECE" filter="url(#f2trnfne6owr1)" height="48" id="ShipIMO" style="stroke:#A80036;stroke-width:1.5;" width="81" x="147" y="338.9531"/><ellipse cx="162" cy="354.9531" fill="#ADD1B2" rx="11" ry="11" style="stroke:#A80036;stroke-width:1.0;"/><path d="M164.3438,350.625 C163.4063,350.1875 162.8125,350.0469 161.9375,350.0469 C159.3125,350.0469 157.3125,352.125 157.3125,354.8438 L157.3125,355.9688 C157.3125,358.5469 159.4219,360.4375 162.3125,360.4375 C163.5313,360.4375 164.6875,360.1406 165.4375,359.5938 C166.0156,359.1875 166.3438,358.7344 166.3438,358.3438 C166.3438,357.8906 165.9531,357.5 165.4844,357.5 C165.2656,357.5 165.0625,357.5781 164.875,357.7656 C164.4219,358.25 164.4219,358.25 164.2344,358.3438 C163.8125,358.6094 163.125,358.7344 162.3594,358.7344 C160.3125,358.7344 159.0156,357.6406 159.0156,355.9375 L159.0156,354.8438 C159.0156,353.0625 160.2656,351.75 162,351.75 C162.5781,351.75 163.1875,351.9063 163.6563,352.1563 C164.1406,352.4375 164.3125,352.6563 164.4063,353.0625 C164.4688,353.4688 164.5,353.5938 164.6406,353.7188 C164.7813,353.8594 165.0156,353.9688 165.2344,353.9688 C165.5,353.9688 165.7656,353.8281 165.9375,353.6094 C166.0469,353.4531 166.0781,353.2656 166.0781,352.8438 L166.0781,351.4219 C166.0781,350.9844 166.0625,350.8594 165.9688,350.7031 C165.8125,350.4375 165.5313,350.2969 165.2344,350.2969 C164.9375,350.2969 164.7344,350.3906 164.5156,350.7031 L164.3438,350.625 Z " fill="#000000"/><text fill="#000000" font-family="sans-serif" font-size="12" lengthAdjust="spacing" textLength="49" x="176" y="359.1074">ShipIMO</text><line style="stroke:#A80036;stroke-width:1.5;" x1="148" x2="227" y1="370.9531" y2="370.9531"/><line style="stroke:#A80036;stroke-width:1.5;" x1="148" x2="227" y1="378.9531" y2="378.9531"/><!--MD5=[10842816a521f091e096081c0b3409a1]
class ShipMMSI--><rect codeLine="23" fill="#FEFECE" filter="url(#f2trnfne6owr1)" height="48" id="ShipMMSI" style="stroke:#A80036;stroke-width:1.5;" width="89" x="263" y="338.9531"/><ellipse cx="278" cy="354.9531" fill="#ADD1B2" rx="11" ry="11" style="stroke:#A80036;stroke-width:1.0;"/><path d="M280.3438,350.625 C279.4063,350.1875 278.8125,350.0469 277.9375,350.0469 C275.3125,350.0469 273.3125,352.125 273.3125,354.8438 L273.3125,355.9688 C273.3125,358.5469 275.4219,360.4375 278.3125,360.4375 C279.5313,360.4375 280.6875,360.1406 281.4375,359.5938 C282.0156,359.1875 282.3438,358.7344 282.3438,358.3438 C282.3438,357.8906 281.9531,357.5 281.4844,357.5 C281.2656,357.5 281.0625,357.5781 280.875,357.7656 C280.4219,358.25 280.4219,358.25 280.2344,358.3438 C279.8125,358.6094 279.125,358.7344 278.3594,358.7344 C276.3125,358.7344 275.0156,357.6406 275.0156,355.9375 L275.0156,354.8438 C275.0156,353.0625 276.2656,351.75 278,351.75 C278.5781,351.75 279.1875,351.9063 279.6563,352.1563 C280.1406,352.4375 280.3125,352.6563 280.4063,353.0625 C280.4688,353.4688 280.5,353.5938 280.6406,353.7188 C280.7813,353.8594 281.0156,353.9688 281.2344,353.9688 C281.5,353.9688 281.7656,353.8281 281.9375,353.6094 C282.0469,353.4531 282.0781,353.2656 282.0781,352.8438 L282.0781,351.4219 C282.0781,350.9844 282.0625,350.8594 281.9688,350.7031 C281.8125,350.4375 281.5313,350.2969 281.2344,350.2969 C280.9375,350.2969 280.7344,350.3906 280.5156,350.7031 L280.3438,350.625 Z " fill="#000000"/><text fill="#000000" font-family="sans-serif" font-size="12" lengthAdjust="spacing" textLength="57" x="292" y="359.1074">ShipMMSI</text><line style="stroke:#A80036;stroke-width:1.5;" x1="264" x2="351" y1="370.9531" y2="370.9531"/><line style="stroke:#A80036;stroke-width:1.5;" x1="264" x2="351" y1="378.9531" y2="378.9531"/><!--MD5=[87cb0b5dfec3beb771c40a20dd3f8a77]
class ShipData--><rect codeLine="25" fill="#FEFECE" filter="url(#f2trnfne6owr1)" height="137.6328" id="ShipData" style="stroke:#A80036;stroke-width:1.5;" width="160" x="387.5" y="293.9531"/><ellipse cx="436.75" cy="309.9531" fill="#ADD1B2" rx="11" ry="11" style="stroke:#A80036;stroke-width:1.0;"/><path d="M439.0938,305.625 C438.1563,305.1875 437.5625,305.0469 436.6875,305.0469 C434.0625,305.0469 432.0625,307.125 432.0625,309.8438 L432.0625,310.9688 C432.0625,313.5469 434.1719,315.4375 437.0625,315.4375 C438.2813,315.4375 439.4375,315.1406 440.1875,314.5938 C440.7656,314.1875 441.0938,313.7344 441.0938,313.3438 C441.0938,312.8906 440.7031,312.5 440.2344,312.5 C440.0156,312.5 439.8125,312.5781 439.625,312.7656 C439.1719,313.25 439.1719,313.25 438.9844,313.3438 C438.5625,313.6094 437.875,313.7344 437.1094,313.7344 C435.0625,313.7344 433.7656,312.6406 433.7656,310.9375 L433.7656,309.8438 C433.7656,308.0625 435.0156,306.75 436.75,306.75 C437.3281,306.75 437.9375,306.9063 438.4063,307.1563 C438.8906,307.4375 439.0625,307.6563 439.1563,308.0625 C439.2188,308.4688 439.25,308.5938 439.3906,308.7188 C439.5313,308.8594 439.7656,308.9688 439.9844,308.9688 C440.25,308.9688 440.5156,308.8281 440.6875,308.6094 C440.7969,308.4531 440.8281,308.2656 440.8281,307.8438 L440.8281,306.4219 C440.8281,305.9844 440.8125,305.8594 440.7188,305.7031 C440.5625,305.4375 440.2813,305.2969 439.9844,305.2969 C439.6875,305.2969 439.4844,305.3906 439.2656,305.7031 L439.0938,305.625 Z " fill="#000000"/><text fill="#000000" font-family="sans-serif" font-size="12" lengthAdjust="spacing" textLength="53" x="457.25" y="314.1074">ShipData</text><line style="stroke:#A80036;stroke-width:1.5;" x1="388.5" x2="546.5" y1="325.9531" y2="325.9531"/><text fill="#000000" font-family="sans-serif" font-size="11" lengthAdjust="spacing" textLength="148" x="393.5" y="340.1636">LocalDateTime dateTime;</text><text fill="#000000" font-family="sans-serif" font-size="11" lengthAdjust="spacing" textLength="89" x="393.5" y="352.9683">double latitude;</text><text fill="#000000" font-family="sans-serif" font-size="11" lengthAdjust="spacing" textLength="99" x="393.5" y="365.7729">double longitude;</text><text fill="#000000" font-family="sans-serif" font-size="11" lengthAdjust="spacing" textLength="66" x="393.5" y="378.5776">double sog;</text><text fill="#000000" font-family="sans-serif" font-size="11" lengthAdjust="spacing" textLength="66" x="393.5" y="391.3823">double cog;</text><text fill="#000000" font-family="sans-serif" font-size="11" lengthAdjust="spacing" textLength="92" x="393.5" y="404.187">double heading;</text><text fill="#000000" font-family="sans-serif" font-size="11" lengthAdjust="spacing" textLength="125" x="393.5" y="416.9917">char transceiverClass;</text><line style="stroke:#A80036;stroke-width:1.5;" x1="388.5" x2="546.5" y1="423.5859" y2="423.5859"/><!--MD5=[04cb40d8f5d6ceed79864e03c6debadc]
reverse link Ship to ShipIMO--><path codeLine="35" d="M219.06,236.5021 C209.319,275.2231 199.358,314.8181 193.3,338.8985 " fill="none" id="Ship-backto-ShipIMO" style="stroke:#A80036;stroke-width:1.0;"/><polygon fill="none" points="212.291,234.7181,223.959,217.0301,225.868,238.1331,212.291,234.7181" style="stroke:#A80036;stroke-width:1.0;"/><!--MD5=[f25951ff5d6ad98ed1ac2036c44703d4]
reverse link Ship to ShipCallSign--><path codeLine="36" d="M161.312,232.7921 C129.874,272.6761 97.2614,314.0481 77.673,338.8985 " fill="none" id="Ship-backto-ShipCallSign" style="stroke:#A80036;stroke-width:1.0;"/><polygon fill="none" points="155.858,228.4041,173.737,217.0301,166.853,237.0701,155.858,228.4041" style="stroke:#A80036;stroke-width:1.0;"/><!--MD5=[3c652507219b8b107afba7fa20522db3]
reverse link Ship to ShipMMSI--><path codeLine="37" d="M275.94,236.5021 C285.681,275.2231 295.642,314.8181 301.7,338.8985 " fill="none" id="Ship-backto-ShipMMSI" style="stroke:#A80036;stroke-width:1.0;"/><polygon fill="none" points="269.132,238.1331,271.041,217.0301,282.709,234.7181,269.132,238.1331" style="stroke:#A80036;stroke-width:1.0;"/><!--MD5=[cf823e3a83ec6e3038a946dd41460ce5]
link Ship to ShipData--><path codeLine="38" d="M323.52,205.8651 C349.974,234.5441 379.336,266.3751 404.608,293.7721 " fill="none" id="Ship-ShipData" style="stroke:#A80036;stroke-width:1.0;"/><polygon fill="#000000" points="379.8901,259.1947,375.9176,250.5536,371.5971,254.5389,379.8901,259.1947" style="stroke:#000000;stroke-width:1.0;"/><text fill="#000000" font-family="sans-serif" font-size="13" lengthAdjust="spacing" textLength="54" x="385.5" y="260.02">contains</text><text fill="#000000" font-family="sans-serif" font-size="13" lengthAdjust="spacing" textLength="8" x="331.397" y="210.4184">1</text><text fill="#000000" font-family="sans-serif" font-size="13" lengthAdjust="spacing" textLength="7" x="390.7613" y="282.9571">*</text><!--MD5=[e17cdbfcc6448d93b86547abd5569558]
@startuml
title Relationships - Class Diagram

class Ship {
int MMSI;
string name;
int id_ship;
int number_energy_gen;
fload gen_power_output;
int callsign;
int ship_type;
float length;
float width;
float capacity;
float draft;
}

class ShipCallSign {

}

class ShipIMO {}

class ShipMMSI {}

class ShipData {
LocalDateTime dateTime;
double latitude;
double longitude;
double sog;
double cog;
double heading;
char transceiverClass;
}

Ship <|- - ShipIMO
Ship <|- - ShipCallSign
Ship <|- - ShipMMSI
Ship "1" - - "*" ShipData: contains >
@enduml

PlantUML version 1.2021.14(Fri Nov 12 16:46:50 UTC 2021)
(GPL source distribution)
Java Runtime: Java(TM) SE Runtime Environment
JVM: Java HotSpot(TM) 64-Bit Server VM
Default Encoding: UTF-8
Language: en
Country: US
--></g></svg>