<?xml version="1.0" encoding="UTF-8" standalone="no"?><svg xmlns="http://www.w3.org/2000/svg" xmlns:xlink="http://www.w3.org/1999/xlink" contentScriptType="application/ecmascript" contentStyleType="text/css" height="2272px" preserveAspectRatio="none" style="width:2263px;height:2272px;background:#FFFFFF;" version="1.1" viewBox="0 0 2263 2272" width="2263px" zoomAndPan="magnify"><defs><filter height="300%" id="f17vc7evvymeon" width="300%" x="-1" y="-1"><feGaussianBlur result="blurOut" stdDeviation="2.0"/><feColorMatrix in="blurOut" result="blurOut2" type="matrix" values="0 0 0 0 0 0 0 0 0 0 0 0 0 0 0 0 0 0 .4 0"/><feOffset dx="4.0" dy="4.0" in="blurOut2" result="blurOut3"/><feBlend in="SourceGraphic" in2="blurOut3" mode="normal"/></filter></defs><g><!--MD5=[dd666d95682ed53f534c4d51d7665f6e]
entity tm--><ellipse cx="64.5" cy="1845" fill="#FEFECE" filter="url(#f17vc7evvymeon)" rx="8" ry="8" style="stroke:#A80036;stroke-width:1.5;"/><path d="M64.5,1853 L64.5,1880 M51.5,1861 L77.5,1861 M64.5,1880 L51.5,1895 M64.5,1880 L77.5,1895 " fill="none" filter="url(#f17vc7evvymeon)" style="stroke:#A80036;stroke-width:1.5;"/><text fill="#000000" font-family="sans-serif" font-size="14" lengthAdjust="spacing" textLength="112" x="8.5" y="1913.4951">Traffic Manager</text><!--MD5=[dc7fb56487618d91d540ed1a4700aa4b]
entity pm--><ellipse cx="64.5" cy="655" fill="#FEFECE" filter="url(#f17vc7evvymeon)" rx="8" ry="8" style="stroke:#A80036;stroke-width:1.5;"/><path d="M64.5,663 L64.5,690 M51.5,671 L77.5,671 M64.5,690 L51.5,705 M64.5,690 L77.5,705 " fill="none" filter="url(#f17vc7evvymeon)" style="stroke:#A80036;stroke-width:1.5;"/><text fill="#000000" font-family="sans-serif" font-size="14" lengthAdjust="spacing" textLength="117" x="6" y="723.4951">Project Manager</text><ellipse cx="1217.7195" cy="1568.1439" fill="#FEFECE" filter="url(#f17vc7evvymeon)" rx="181.2195" ry="38.6439" style="stroke:#A80036;stroke-width:1.5;"/><text fill="#000000" font-family="sans-serif" font-size="14" lengthAdjust="spacing" textLength="335" x="1050.2195" y="1570.9906">US101: Import ships from a text file into a BST</text><ellipse cx="1217.3383" cy="1703.7677" fill="#FEFECE" filter="url(#f17vc7evvymeon)" rx="296.8383" ry="61.7677" style="stroke:#A80036;stroke-width:1.5;"/><text fill="#000000" font-family="sans-serif" font-size="14" lengthAdjust="spacing" textLength="570" x="932.3383" y="1706.6143">US102: Search the details of a ship using any of its codes: MMSI, IMO or Call Sign</text><ellipse cx="1217.3335" cy="1875.8667" fill="#FEFECE" filter="url(#f17vc7evvymeon)" rx="359.8335" ry="74.3667" style="stroke:#A80036;stroke-width:1.5;"/><text fill="#000000" font-family="sans-serif" font-size="14" lengthAdjust="spacing" textLength="697" x="868.8335" y="1878.7134">US103: Have the positional messages temporally organized and associated with each of the ships</text><ellipse cx="1217.6801" cy="2024.936" fill="#FEFECE" filter="url(#f17vc7evvymeon)" rx="182.6801" ry="38.936" style="stroke:#A80036;stroke-width:1.5;"/><text fill="#000000" font-family="sans-serif" font-size="14" lengthAdjust="spacing" textLength="338" x="1048.6801" y="2027.7827">US104: Make a summary of a ship's movements</text><ellipse cx="1217.6497" cy="2179.9299" fill="#FEFECE" filter="url(#f17vc7evvymeon)" rx="390.1497" ry="80.4299" style="stroke:#A80036;stroke-width:1.5;"/><text fill="#000000" font-family="sans-serif" font-size="14" lengthAdjust="spacing" textLength="758" x="838.6497" y="2182.7766">US105: List for all ships the MMSI, the total number of movements, Travelled Distance and Delta Distance</text><ellipse cx="1217.5934" cy="160.9187" fill="#FEFECE" filter="url(#f17vc7evvymeon)" rx="762.5934" ry="154.9187" style="stroke:#A80036;stroke-width:1.5;"/><text fill="#000000" font-family="sans-serif" font-size="14" lengthAdjust="spacing" textLength="1505" x="465.0934" y="163.7654">US108: Develop the data model required to support all the functionality and to fulfill the purpose of the system to develop. This data model is to be designed following a systematic data modeling methodology</text><ellipse cx="1217.6983" cy="493.1397" fill="#FEFECE" filter="url(#f17vc7evvymeon)" rx="696.1983" ry="141.6397" style="stroke:#A80036;stroke-width:1.5;"/><text fill="#000000" font-family="sans-serif" font-size="14" lengthAdjust="spacing" textLength="1372" x="531.6983" y="495.9863">US109: Draft an SQL script to test whether the database verifies all the data integrity restrictions that are required to fulfil the purpose of the system and the business constraints of the UoD</text><ellipse cx="1217.3051" cy="878.761" fill="#FEFECE" filter="url(#f17vc7evvymeon)" rx="1034.3051" ry="209.261" style="stroke:#A80036;stroke-width:1.5;"/><text fill="#000000" font-family="sans-serif" font-size="14" lengthAdjust="spacing" textLength="2049" x="192.8051" y="881.6077">US110: Define the naming conventions to apply when defining identifiers or writing SQL or PL/SQL code. The naming conventions may evolve as new database and programming objects are known. The naming conventions guide should be organized in a way to facilitate its maintenance</text><ellipse cx="1217.4131" cy="1308.8826" fill="#FEFECE" filter="url(#f17vc7evvymeon)" rx="912.4131" ry="184.8826" style="stroke:#A80036;stroke-width:1.5;"/><text fill="#000000" font-family="sans-serif" font-size="14" lengthAdjust="spacing" textLength="1805" x="314.9131" y="1311.7293">US111: Create a SQL script to load the database with a minimum set of data sufficient to carry out data integrity verification and functional testing. This script shall produce a bootstrap report providing the number of tuples/rows in each relation/table</text><!--MD5=[555b063e003db0b842c86fa21249dd73]
link tm to US101--><path d="M71.5333,1835.104 C82.4574,1777.293 111.429,1673.34 183,1625 C318.095,1533.755 780.841,1543.217 1038.94,1556.468 " fill="none" id="tm-to-US101" style="stroke:#A80036;stroke-width:1.0;"/><polygon fill="#A80036" points="1044.24,1556.743,1035.4576,1552.2854,1039.2466,1556.4858,1035.0462,1560.2748,1044.24,1556.743" style="stroke:#A80036;stroke-width:1.0;"/><!--MD5=[8f749fa2607ebe9d25118b47838dc806]
link tm to US102--><path d="M104.9516,1835.469 C126.163,1816.358 153.902,1795.312 183,1784 C424.004,1690.311 720.038,1676.589 933.413,1682.582 " fill="none" id="tm-to-US102" style="stroke:#A80036;stroke-width:1.0;"/><polygon fill="#A80036" points="938.438,1682.727,929.5572,1678.469,933.4401,1682.5827,929.3263,1686.4657,938.438,1682.727" style="stroke:#A80036;stroke-width:1.0;"/><!--MD5=[434f65544a67c49e6be0e76aa106033c]
link tm to US103--><path d="M120.627,1876 C250.809,1876 586.327,1876 852.108,1876 " fill="none" id="tm-to-US103" style="stroke:#A80036;stroke-width:1.0;"/><polygon fill="#A80036" points="857.193,1876,848.193,1872,852.193,1876,848.193,1880,857.193,1876" style="stroke:#A80036;stroke-width:1.0;"/><!--MD5=[55a68f8985be3d93926b3c0765435808]
link tm to US104--><path d="M104.5844,1916.564 C125.802,1935.809 153.657,1956.966 183,1968 C474.907,2077.77 846.006,2064.905 1054.77,2045.231 " fill="none" id="tm-to-US104" style="stroke:#A80036;stroke-width:1.0;"/><polygon fill="#A80036" points="1059.98,2044.736,1050.643,2041.6022,1055.0023,2045.2073,1051.3972,2049.5666,1059.98,2044.736" style="stroke:#A80036;stroke-width:1.0;"/><!--MD5=[10a17e582b79ff174e5ade0296a6dd49]
link tm to US105--><path d="M76.332,1916.841 C91.4906,1965.182 124.032,2043.912 183,2082 C388.512,2214.7404 666.662,2234.264 882.635,2223.3151 " fill="none" id="tm-to-US105" style="stroke:#A80036;stroke-width:1.0;"/><polygon fill="#A80036" points="887.725,2223.0509,878.5302,2219.5217,882.7317,2223.3095,878.9439,2227.511,887.725,2223.0509" style="stroke:#A80036;stroke-width:1.0;"/><!--MD5=[ca15944755d8fbd297e3e4385d1f90ee]
link pm to US108--><path d="M66.2577,645.49 C69.9911,571.36 89.2148,414.16 183,334 C262.891,265.71 359.356,219.44 460.846,188.71 " fill="none" id="pm-to-US108" style="stroke:#A80036;stroke-width:1.0;"/><polygon fill="#A80036" points="465.683,187.26,455.9139,186.0095,460.8931,188.6941,458.2085,193.6734,465.683,187.26" style="stroke:#A80036;stroke-width:1.0;"/><!--MD5=[b00aed01a08878a4df30247a37cf4ee3]
link pm to US109--><path d="M123.09,667.73 C142.039,662.15 163.299,656.35 183,652 C325.676,620.52 480.791,593.12 626.423,570.34 " fill="none" id="pm-to-US109" style="stroke:#A80036;stroke-width:1.0;"/><polygon fill="#A80036" points="631.599,569.53,622.0887,566.9699,626.6591,570.3032,623.3258,574.8736,631.599,569.53" style="stroke:#A80036;stroke-width:1.0;"/><!--MD5=[869353957dffa2396bc97e9a3e5126e6]
link pm to US110--><path d="M123.367,695.7 C185.529,706.13 292.116,724 415.057,744.61 " fill="none" id="pm-to-US110" style="stroke:#A80036;stroke-width:1.0;"/><polygon fill="#A80036" points="420.178,745.47,411.9642,740.0356,415.247,744.6424,410.6401,747.9252,420.178,745.47" style="stroke:#A80036;stroke-width:1.0;"/><!--MD5=[795420e9fa76f0f0af3c448d09721cbc]
link pm to US111--><path d="M71.3733,726.55 C85.9467,821.46 126.697,1053.97 183,1106 C240.409,1159.05 307.464,1200.05 379.342,1231.53 " fill="none" id="pm-to-US111" style="stroke:#A80036;stroke-width:1.0;"/><polygon fill="#A80036" points="384.084,1233.59,377.424,1226.3343,379.4983,1231.5972,374.2355,1233.6714,384.084,1233.59" style="stroke:#A80036;stroke-width:1.0;"/><!--MD5=[016731eca710a149e5558ceecd938ae3]
@startuml
left to right direction
actor "Traffic Manager" as tm
actor "Project Manager" as pm

  usecase "US101: Import ships from a text file into a BST" as US101
  usecase "US102: Search the details of a ship using any of its codes: MMSI, IMO or Call Sign" as US102
  usecase "US103: Have the positional messages temporally organized and associated with each of the ships" as US103
  usecase "US104: Make a summary of a ship's movements" as US104
  usecase "US105: List for all ships the MMSI, the total number of movements, Travelled Distance and Delta Distance" as US105
  usecase "US108: Develop the data model required to support all the functionality and to fulfill the purpose of the system to develop. This data model is to be designed following a systematic data modeling methodology" as US108
  usecase "US109: Draft an SQL script to test whether the database verifies all the data integrity restrictions that are required to fulfil the purpose of the system and the business constraints of the UoD" as US109
  usecase "US110: Define the naming conventions to apply when defining identifiers or writing SQL or PL/SQL code. The naming conventions may evolve as new database and programming objects are known. The naming conventions guide should be organized in a way to facilitate its maintenance" as US110
  usecase "US111: Create a SQL script to load the database with a minimum set of data sufficient to carry out data integrity verification and functional testing. This script shall produce a bootstrap report providing the number of tuples/rows in each relation/table" as US111

tm - -> US101
tm - -> US102
tm - -> US103
tm - -> US104
tm - -> US105

pm - -> US108
pm - -> US109
pm - -> US110
pm - -> US111
@enduml

PlantUML version 1.2021.13beta8(Unknown compile time)
(GPL source distribution)
Java Runtime: Java(TM) SE Runtime Environment
JVM: Java HotSpot(TM) 64-Bit Server VM
Default Encoding: UTF-8
Language: en
Country: US
--></g></svg>